<svg width="750" height="500" xmlns="http://www.w3.org/2000/svg">

 <g>
  <title>background</title>
  <rect fill="none" id="canvas_background" height="602" width="802" y="-1" x="-1"/>
 </g>
 <g>
  <title>Layer 1</title>
  <g id="freepik--background-complete--inject-20">
   <polygon id="svg_1" fill="#fafafa" points="654.68 255.61 653.9 246.84 690 249.5 690 255.61 654.68 255.61"/>
   <polygon id="svg_2" fill="#fafafa" points="655.91 246.99 655.91 241.89 689.47 241.89 688.8 249.41 655.91 246.99"/>
   <polygon id="svg_3" fill="#fafafa" points="652.6 237.19 653.29 241.89 686.43 241.89 686.43 237.19 652.6 237.19"/>
   <g id="svg_4" opacity="0.29">
    <polygon id="svg_5" fill="#e0e0e0" points="655.91 241.89 655.91 242.99 688.31 241.89 655.91 241.89"/>
   </g>
   <g id="svg_6" opacity="0.29">
    <polygon id="svg_7" fill="#e0e0e0" points="655.91 246.99 688.8 249.41 688.91 248.2 655.91 246.99"/>
   </g>
   <g id="svg_8" opacity="0.29">
    <polygon id="svg_9" fill="#e0e0e0" points="673.99 245.01 679.68 244.29 688.31 245.01 673.99 245.01"/>
   </g>
   <g id="svg_10" opacity="0.29">
    <polygon id="svg_11" fill="#e0e0e0" points="654.36 251.97 665.09 251.97 654.42 252.73 654.36 251.97"/>
   </g>
   <g id="svg_12" opacity="0.29">
    <path id="svg_13" fill="#e0e0e0" d="m664.35,239.54l22.08,-0.69c0.02,0.53 -22.08,0.69 -22.08,0.69z"/>
   </g>
   <rect id="svg_14" fill="#e0e0e0" transform="rotate(-90 404.2300109863282,854.2100219726562) " height="37.73" width="5.04" y="1060.33002" x="1030.93001"/>
   <path id="svg_15" fill="#fafafa" d="m615.5,222.68a12.22,12.22 0 0 1 0,4.72a11.72,11.72 0 0 1 0,-4.72z"/>
   <path id="svg_16" fill="#fafafa" d="m614.68,222.57a12.27,12.27 0 0 1 0,4.73a11.77,11.77 0 0 1 0,-4.73z"/>
   <path id="svg_17" fill="#fafafa" d="m645.17,222.68a11.72,11.72 0 0 1 0,4.72a11.72,11.72 0 0 1 0,-4.72z"/>
   <path id="svg_18" fill="#fafafa" d="m644.35,222.57a11.77,11.77 0 0 1 0,4.73a11.77,11.77 0 0 1 0,-4.73z"/>
   <path id="svg_19" fill="#fafafa" d="m639.42,225.14c0,0.13 -4.32,0.24 -9.65,0.24s-9.65,-0.11 -9.65,-0.24s4.32,-0.24 9.65,-0.24s9.65,0.1 9.65,0.24z"/>
   <rect id="svg_20" fill="#e0e0e0" transform="rotate(-90 378.85998535156256,879.260009765625) " height="37.73" width="10.08" y="1110.60001" x="1002.87999"/>
   <path id="svg_21" fill="#fafafa" d="m648.41,252.41l-0.21,0.11c-0.14,0.08 -0.35,0.17 -0.63,0.29a10.44,10.44 0 0 1 -2.55,0.73a6.64,6.64 0 0 1 -4.15,-0.59a5.56,5.56 0 0 1 -2,-1.78a4.17,4.17 0 0 1 -0.68,-2.91a3.07,3.07 0 0 1 0.69,-1.5a2,2 0 0 1 1.59,-0.72a2.31,2.31 0 0 1 1.6,0.86a3.17,3.17 0 0 1 0.73,1.72a4.56,4.56 0 0 1 -1.3,3.57a5.75,5.75 0 0 1 -3.63,1.78a9.64,9.64 0 0 1 -4.2,-0.53a7.73,7.73 0 0 1 -3.67,-2.44a4,4 0 0 1 -0.86,-2.17a2.85,2.85 0 0 1 0.8,-2.27a1.85,1.85 0 0 1 1.18,-0.52a2.21,2.21 0 0 1 1.24,0.35a3.29,3.29 0 0 1 1.39,2a4.77,4.77 0 0 1 -1.49,4.44a7.52,7.52 0 0 1 -4.25,1.73a10.5,10.5 0 0 1 -4.4,-0.44a6,6 0 0 1 -3.35,-2.6a4.47,4.47 0 0 1 -0.42,-4a2.12,2.12 0 0 1 1.54,-1.3a2.42,2.42 0 0 1 1.9,0.46a3.16,3.16 0 0 1 0.9,3.4a5.86,5.86 0 0 1 -1.91,2.67a8.45,8.45 0 0 1 -5.17,2a8.38,8.38 0 0 1 -6.24,-2.51a4.74,4.74 0 0 1 -0.45,-0.53a0.89,0.89 0 0 1 -0.13,-0.19a9.66,9.66 0 0 0 2.8,2.14a8.18,8.18 0 0 0 9,-1.17a5.51,5.51 0 0 0 1.76,-2.53a2.78,2.78 0 0 0 -0.78,-3a2,2 0 0 0 -1.59,-0.37a1.68,1.68 0 0 0 -1.23,1.07a4,4 0 0 0 0.41,3.61a5.64,5.64 0 0 0 3.12,2.4a10.05,10.05 0 0 0 4.21,0.4a7,7 0 0 0 4,-1.61a4.29,4.29 0 0 0 1.34,-4a2.84,2.84 0 0 0 -1.17,-1.74a1.45,1.45 0 0 0 -1.84,0.12a2.33,2.33 0 0 0 -0.66,1.88a3.51,3.51 0 0 0 0.76,1.93a7.36,7.36 0 0 0 3.45,2.33a9.28,9.28 0 0 0 4,0.51a5.33,5.33 0 0 0 3.38,-1.62a4.16,4.16 0 0 0 1.21,-3.25a2.4,2.4 0 0 0 -2,-2.25a1.6,1.6 0 0 0 -1.31,0.59a2.65,2.65 0 0 0 -0.62,1.32a3.82,3.82 0 0 0 0.61,2.68a5.18,5.18 0 0 0 1.84,1.72a6.55,6.55 0 0 0 4,0.64a12.22,12.22 0 0 0 2.55,-0.64c0.59,-0.16 0.88,-0.29 0.89,-0.27z"/>
   <rect id="svg_22" fill="#ebebeb" transform="rotate(-90 394.3399963378907,867.1400146484375) " height="34.36" width="17.49" y="1086.36001" x="1016.34"/>
   <path id="svg_23" fill="#e0e0e0" d="m619.27,228.25a75.63,75.63 0 0 1 0.24,8.47a75.52,75.52 0 0 1 -0.24,8.46a75.52,75.52 0 0 1 -0.24,-8.46a75.63,75.63 0 0 1 0.24,-8.47z"/>
   <path id="svg_24" fill="#e0e0e0" d="m621.88,228a75.13,75.13 0 0 1 0.23,8.35a75.25,75.25 0 0 1 -0.23,8.36a73.68,73.68 0 0 1 -0.24,-8.36a73.57,73.57 0 0 1 0.24,-8.35z"/>
   <path id="svg_25" fill="#e0e0e0" d="m644,227.47a81.66,81.66 0 0 1 0.24,8.8a81.78,81.78 0 0 1 -0.24,8.81a81.78,81.78 0 0 1 -0.24,-8.81a81.66,81.66 0 0 1 0.24,-8.8z"/>
   <path id="svg_26" fill="#e0e0e0" d="m641,227.71a77.5,77.5 0 0 1 0.24,8.57a77.62,77.62 0 0 1 -0.24,8.58a77.62,77.62 0 0 1 -0.24,-8.58a77.5,77.5 0 0 1 0.24,-8.57z"/>
   <rect id="svg_27" fill="#f5f5f5" height="165.46" width="51.12" y="254.98" x="599.65"/>
   <rect id="svg_28" fill="#e0e0e0" height="165.4" width="43.4" y="255.01" x="650.77"/>
   <rect id="svg_29" fill="#e0e0e0" height="35.64" width="41.01" y="261.68" x="603.64"/>
   <rect id="svg_30" fill="#e0e0e0" height="35.64" width="41.01" y="301.36" x="603.64"/>
   <rect id="svg_31" fill="#e0e0e0" height="35.64" width="41.01" y="341.04" x="603.64"/>
   <rect id="svg_32" fill="#e0e0e0" height="35.64" width="41.01" y="380.73" x="603.64"/>
   <path id="svg_33" fill="#fafafa" d="m624.15,268.26a1.43,1.43 0 1 1 -1.42,-1.42a1.43,1.43 0 0 1 1.42,1.42z"/>
   <path id="svg_34" fill="#fafafa" d="m624.15,308.41a1.43,1.43 0 1 1 -1.42,-1.43a1.43,1.43 0 0 1 1.42,1.43z"/>
   <path id="svg_35" fill="#fafafa" d="m624.15,348.55a1.43,1.43 0 1 1 -1.42,-1.43a1.42,1.42 0 0 1 1.42,1.43z"/>
   <path id="svg_36" fill="#fafafa" d="m624.15,388.69a1.43,1.43 0 1 1 -1.42,-1.42a1.43,1.43 0 0 1 1.42,1.42z"/>
   <rect id="svg_37" fill="#e0e0e0" height="33.19" width="5.91" y="420.44" x="599.65"/>
   <rect id="svg_38" fill="#e0e0e0" height="33.19" width="5.91" y="420.44" x="644.66"/>
   <rect id="svg_39" fill="#e0e0e0" height="33.19" width="5.91" y="420.44" x="687.63"/>
   <rect id="svg_40" fill="#e0e0e0" transform="rotate(-0.3100000023841858 -1.4800000190735023,0.389999985694876) " height="357.6" width="8.04" y="97.82" x="66.05"/>
   <rect id="svg_41" fill="#e0e0e0" transform="rotate(-0.3100000023841858 -1.4800000190735023,0.49000000953672285) " height="357.6" width="8.04" y="97.81" x="85.31"/>
   <rect id="svg_42" fill="#e0e0e0" transform="rotate(-0.3100000023841858 -1.4700000286102535,1.3899999856948915) " height="357.6" width="8.04" y="97.81" x="253.64"/>
   <rect id="svg_43" fill="#e0e0e0" transform="rotate(-0.3100000023841858 -1.4600000381470046,1.4900000095367394) " height="357.6" width="8.04" y="97.81" x="272.92"/>
   <rect id="svg_44" fill="#e0e0e0" transform="rotate(-0.3100000023841858 -0.5400000214576753,0.9300000071525627) " height="8.16" width="214.9" y="97.8" x="66.05"/>
   <rect id="svg_45" fill="#e0e0e0" transform="rotate(-0.3100000023841858 -0.9200000166893294,0.9399999976158051) " height="2.44" width="214.9" y="171.23" x="66.05"/>
   <rect id="svg_46" fill="#e0e0e0" transform="rotate(-0.3100000023841858 -1.2899999618530544,0.9399999976157946) " height="2.44" width="214.9" y="240.43" x="66.05"/>
   <rect id="svg_47" fill="#e0e0e0" transform="rotate(-0.3100000023841858 -1.6599999666214005,0.9399999976158235) " height="2.44" width="214.9" y="309.63" x="66.05"/>
   <rect id="svg_48" fill="#e0e0e0" transform="rotate(-0.3100000023841858 -2.0299999713898056,0.9499999880791491) " height="2.44" width="214.9" y="378.84" x="66.05"/>
   <rect id="svg_49" fill="#ebebeb" transform="rotate(-0.3100000023841858 -1.9099999666214005,0.9399999976158286) " height="40.38" width="38.07" y="338.45" x="153.3"/>
   <rect id="svg_50" fill="#f5f5f5" transform="rotate(-0.3100000023841858 -1.9099999666214005,1.1399999856948986) " height="40.38" width="38.07" y="338.45" x="191.18"/>
   <path id="svg_51" fill="#e0e0e0" d="m155.16,348.67c25.29,0.25 50.66,0 76,-0.36a0.3,0.3 0 0 0 0,-0.59c-25.29,-0.14 -50.66,-0.07 -76,0.45a0.25,0.25 0 0 0 0,0.5z"/>
   <rect id="svg_52" fill="#ebebeb" transform="rotate(-0.3100000023841858 -1.0700000524521611,0.8999999761581352) " height="29.58" width="27.88" y="186.37" x="153.29"/>
   <rect id="svg_53" fill="#f5f5f5" transform="rotate(-0.3100000023841858 -1.0700000524521018,1.0499999523163024) " height="29.58" width="27.88" y="186.37" x="181.04"/>
   <path id="svg_54" fill="#e0e0e0" d="m154.33,193.72q27.79,0.22 55.63,-0.26a0.3,0.3 0 0 0 0,-0.59c-18.53,-0.1 -37.11,0 -55.64,0.34a0.26,0.26 0 0 0 0,0.51l0.01,0z"/>
   <rect id="svg_55" fill="#ebebeb" transform="rotate(-0.3100000023841858 -1.2100000381469456,0.8700000047683484) " height="24.1" width="50.66" y="215.49" x="135.75"/>
   <rect id="svg_56" fill="#f5f5f5" transform="rotate(-0.3100000023841858 -1.2100000381468863,1.139999985694874) " height="24.1" width="50.66" y="215.49" x="186.17"/>
   <path id="svg_57" fill="#e0e0e0" d="m136.94,221.46c33.65,0.38 67.42,0 101.07,-0.5a0.3,0.3 0 0 0 0,-0.6c-33.66,-0.17 -67.43,-0.15 -101.08,0.59a0.26,0.26 0 0 0 0,0.51l0.01,0z"/>
   <rect id="svg_58" fill="#ebebeb" transform="rotate(-0.3100000023841858 -0.7799999713897464,0.7799999713897595) " height="49.62" width="12.72" y="121.74" x="137.63"/>
   <rect id="svg_59" fill="#e0e0e0" transform="rotate(-0.3100000023841858 -0.8100000023842026,0.7099999785423396) " height="36.07" width="12.72" y="135.16" x="124.67"/>
   <rect id="svg_60" fill="#e0e0e0" transform="rotate(-0.3100000023841858 -0.8000000119209835,0.8700000047683873) " height="40.21" width="19.77" y="131.04" x="150.52"/>
   <rect id="svg_61" fill="#ebebeb" transform="rotate(-0.3100000023841858 -0.8000000119209242,0.9300000071525667) " height="40.21" width="6.28" y="131.03" x="169.99"/>
   <rect id="svg_62" fill="#e0e0e0" transform="rotate(-0.3100000023841858 -0.8299999833107299,0.9700000286102308) " height="30.92" width="6.28" y="140.33" x="176.27"/>
   <rect id="svg_63" fill="#e0e0e0" transform="rotate(22.290000915527344 118.23000335693361,-29.360000610351584) " height="46.52" width="12.72" y="232.71" x="245.47"/>
   <rect id="svg_64" fill="#ebebeb" transform="rotate(-0.3100000023841858 -1.5199999809264977,0.8199999928474436) " height="49.62" width="12.72" y="260.31" x="145.22"/>
   <rect id="svg_65" fill="#e0e0e0" transform="rotate(-0.3100000023841858 -1.5399999618529954,0.9499999880790557) " height="40.21" width="19.77" y="269.62" x="164.47"/>
   <rect id="svg_66" fill="#ebebeb" transform="rotate(-0.3100000023841858 -1.5099999904633081,0.8899999856948592) " height="55.1" width="4.33" y="254.72" x="160.14"/>
   <rect id="svg_67" fill="#f5f5f5" transform="rotate(-0.3100000023841858 -1.5299999713897465,0.8700000047683454) " height="46.52" width="2.16" y="263.31" x="157.98"/>
   <rect id="svg_68" fill="#f5f5f5" transform="rotate(-90.30999755859375 -97.25000000000006,518.719970703125) " height="46.52" width="2.16" y="803.18997" x="111.02"/>
   <rect id="svg_69" fill="#ebebeb" transform="rotate(-0.3100000023841858 -1.6000000238418484,1.1399999856949004) " height="12.86" width="50.71" y="294.91" x="184.25"/>
   <rect id="svg_70" fill="#e0e0e0" transform="rotate(-0.3100000023841858 -1.5399999618529954,1.1100000143051023) " height="12.86" width="40.72" y="281.95" x="184.24"/>
   <circle id="svg_71" fill="#e0e0e0" transform="rotate(-22.6200008392334 8.000000000000115,219.6600036621094) " r="30.09" cy="309.49" cx="561.08"/>
   <path id="svg_72" fill="#fafafa" d="m566.74,90.75a3.9,3.9 0 0 1 -1.06,0.1l-2.92,0.08c-2.49,0 -5.94,0.07 -9.85,0.08l-0.26,0l0,-2.21c0,-4.36 0,-8.3 0.08,-11.16c0,-1.34 0.06,-2.48 0.08,-3.38a6.19,6.19 0 0 1 0.1,-1.24a5.37,5.37 0 0 1 0.1,1.24c0,0.9 0,2 0.09,3.38c0,2.86 0.07,6.8 0.07,11.16l0,2l-0.26,-0.26c3.91,0 7.36,0 9.85,0.09l2.92,0.08a5,5 0 0 1 1.06,0.04z"/>
   <path id="svg_73" fill="#fafafa" d="m553,64.68a6.13,6.13 0 0 1 0.27,2.53a6.1,6.1 0 0 1 -0.27,2.52a6.42,6.42 0 0 1 -0.26,-2.52a6.45,6.45 0 0 1 0.26,-2.53z"/>
   <path id="svg_74" fill="#fafafa" d="m566.72,68.74c0.1,0.1 -0.61,1 -1.58,1.94s-1.85,1.68 -1.95,1.58s0.61,-1 1.58,-1.94s1.84,-1.68 1.95,-1.58z"/>
   <path id="svg_75" fill="#fafafa" d="m574.73,77.5c0.07,0.13 -0.87,0.73 -2,1.44a7.45,7.45 0 0 1 -2.21,1.14c-0.09,-0.11 0.75,-0.87 1.94,-1.59a5.3,5.3 0 0 1 2.27,-0.99z"/>
   <path id="svg_76" fill="#fafafa" d="m579.43,90.49a23,23 0 0 1 -6.89,0a23,23 0 0 1 6.89,0z"/>
   <path id="svg_77" fill="#fafafa" d="m531.63,90a20.51,20.51 0 0 1 -6.51,0a20.51,20.51 0 0 1 6.51,0z"/>
   <path id="svg_78" fill="#fafafa" d="m535,99.71a10.36,10.36 0 0 1 -2.4,2.29a11.12,11.12 0 0 1 -2.75,1.88a10.74,10.74 0 0 1 2.42,-2.29a10.89,10.89 0 0 1 2.73,-1.88z"/>
   <path id="svg_79" fill="#fafafa" d="m543.35,107.19a14.66,14.66 0 0 1 -1.61,2.94a14,14 0 0 1 -1.84,2.8a9.11,9.11 0 0 1 1.39,-3.07a9,9 0 0 1 2.06,-2.67z"/>
   <path id="svg_80" fill="#fafafa" d="m553,116.84a11.75,11.75 0 0 1 -0.26,-3.44a11.79,11.79 0 0 1 0.26,-3.4a11.2,11.2 0 0 1 0.27,3.45a11.16,11.16 0 0 1 -0.27,3.39z"/>
   <path id="svg_81" fill="#fafafa" d="m567.86,112.25a8.38,8.38 0 0 1 -2.88,-1.9a8.5,8.5 0 0 1 -2.28,-2.6a18.39,18.39 0 0 1 2.62,2.21a17.42,17.42 0 0 1 2.54,2.29z"/>
   <path id="svg_82" fill="#fafafa" d="m574.84,104.74a9,9 0 0 1 -2.33,-2a8.83,8.83 0 0 1 -2,-2.33a9.34,9.34 0 0 1 2.33,2a9.15,9.15 0 0 1 2,2.33z"/>
   <path id="svg_83" fill="#fafafa" d="m534.7,80.76c-0.1,0.11 -1,-0.65 -2.06,-1.69s-1.8,-2 -1.7,-2.06s1,0.66 2.07,1.69s1.79,1.96 1.69,2.06z"/>
   <path id="svg_84" fill="#fafafa" d="m543.3,71.7c-0.1,0.1 -1,-0.64 -2,-1.65s-1.76,-1.92 -1.66,-2s1,0.64 2,1.65s1.76,1.9 1.66,2z"/>
   <rect id="svg_85" fill="#e0e0e0" height="57.54" width="87.51" y="158.64" x="321.41"/>
   <rect id="svg_86" fill="#fafafa" height="52.61" width="81.38" y="161" x="324.46"/>
   <rect id="svg_87" fill="#e0e0e0" height="14.48" width="26.55" y="180.17" x="351.87"/>
  </g>
  <g id="freepik--Floor--inject-20">
   <path id="svg_88" fill="#263238" d="m688.91,454.05c0,0.14 -130.26,0.26 -290.92,0.26s-290.99,-0.12 -290.99,-0.26s130.24,-0.26 291,-0.26s290.91,0.12 290.91,0.26z"/>
  </g>
  <g id="freepik--Desk--inject-20">
   <rect id="svg_89" fill="#455a64" height="20.52" width="105.87" y="306.51" x="434.29"/>
   <rect id="svg_90" fill="#263238" transform="rotate(180 799.3200073242188,584.6799926757812) " height="3.05" width="62.69" y="875.48999" x="1167.63001"/>
   <polygon id="svg_91" fill="#263238" points="440.72 293.86 452.48 249.8 403.53 249.8 392.88 293.86 440.72 293.86"/>
   <polygon id="svg_92" fill="#e0e0e0" points="395.81 290.53 439.54 290.53 449.72 251.83 405.77 251.83 395.81 290.53"/>
   <rect id="svg_93" fill="#455a64" height="151.16" width="3.17" y="302.89" x="343.52"/>
   <rect id="svg_94" fill="#263238" height="150.73" width="3.17" y="303.32" x="346.69"/>
   <rect id="svg_95" fill="#455a64" height="151.16" width="3.17" y="302.89" x="538.58"/>
   <rect id="svg_96" fill="#263238" height="150.73" width="3.17" y="303.32" x="541.74"/>
   <rect id="svg_97" fill="#455a64" height="12.4" width="240.49" y="294.11" x="329.85"/>
   <path id="svg_98" fill="#263238" d="m491.94,315.35a2.36,2.36 0 1 1 -2.36,-2.36a2.36,2.36 0 0 1 2.36,2.36z"/>
  </g>
  <g id="freepik--Chair--inject-20">
   <path id="svg_99" fill="#23346B" d="m305.61,360.47l-21.55,-87.69a10,10 0 0 1 9.7,-12.36l50.93,0a10,10 0 0 1 9.66,7.47l22.65,87.19a10,10 0 0 1 -9.56,12.49l-52,0.5a10,10 0 0 1 -9.83,-7.6z"/>
   <path id="svg_100" fill="#23346B" d="m294.07,260.38a10.62,10.62 0 0 0 -10.32,13.13l22.95,94.6l17.11,0l-29.74,-107.73z"/>
   <rect id="svg_101" fill="#23346B" rx="9.59" height="27.41" width="69.76" y="340.74" x="330.29"/>
   <g id="svg_102" opacity="0.4">
    <path id="svg_103" d="m339.88,368.13l-6.16,-27.41l-17.46,0l-22.19,-80.36a10.62,10.62 0 0 0 -10.32,13.13l22.95,94.6l0.78,0l0,0l32.4,0.04z"/>
   </g>
   <path id="svg_104" fill="#e0e0e0" d="m381.25,340.74c0,0.14 -14.4,0.26 -32.16,0.26s-32.17,-0.12 -32.17,-0.26s14.4,-0.26 32.17,-0.26s32.16,0.11 32.16,0.26z"/>
   <path id="svg_105" fill="#e0e0e0" d="m321,295.45a2.74,2.74 0 0 0 0,1.56a1.93,1.93 0 0 0 1.12,1.1a1.62,1.62 0 0 0 1.71,-0.59a1.64,1.64 0 0 0 0.28,-1.79a1.89,1.89 0 0 0 -1.29,-0.9a2.68,2.68 0 0 0 -1.53,0.23s0.06,-0.17 0.32,-0.34a2,2 0 0 1 1.27,-0.26a2.22,2.22 0 0 1 1.65,1a2.2,2.2 0 0 1 -2.56,3.06a2.2,2.2 0 0 1 -1.31,-1.43a2,2 0 0 1 0,-1.3c0.22,-0.24 0.34,-0.35 0.34,-0.34z"/>
   <path id="svg_106" fill="#e0e0e0" d="m320.36,308.47a3.68,3.68 0 0 1 -0.57,-1.75a8.79,8.79 0 0 1 0.44,-4.42a8.89,8.89 0 0 1 2.53,-3.65a4,4 0 0 1 1.57,-1c0.05,0.07 -0.54,0.45 -1.32,1.23a9.69,9.69 0 0 0 -2.86,7.76c0.09,1.14 0.29,1.81 0.21,1.83z"/>
   <path id="svg_107" fill="#e0e0e0" d="m316.35,288.17a15.6,15.6 0 0 0 1.57,4.16a15.22,15.22 0 0 0 3.07,3.21c0,0.06 -0.53,-0.1 -1.23,-0.57a7.83,7.83 0 0 1 -2.28,-2.36a8,8 0 0 1 -1.15,-3.08a2.58,2.58 0 0 1 0.02,-1.36z"/>
   <path id="svg_108" fill="#e0e0e0" d="m313.9,296.18c0.08,-0.13 1.43,0.7 3.29,1.08s3.43,0.19 3.45,0.35a5.62,5.62 0 0 1 -3.56,0.16a5.52,5.52 0 0 1 -3.18,-1.59z"/>
   <path id="svg_109" fill="#e0e0e0" d="m347.69,295.45a2.74,2.74 0 0 0 0,1.56a1.93,1.93 0 0 0 1.12,1.1a1.62,1.62 0 0 0 1.71,-0.59a1.64,1.64 0 0 0 0.28,-1.79a1.9,1.9 0 0 0 -1.28,-0.9a2.7,2.7 0 0 0 -1.54,0.23s0.07,-0.17 0.33,-0.34a1.93,1.93 0 0 1 1.26,-0.26a2.22,2.22 0 0 1 1.65,1a2.2,2.2 0 0 1 -2.56,3.06a2.2,2.2 0 0 1 -1.31,-1.43a2,2 0 0 1 0,-1.3c0.19,-0.24 0.32,-0.35 0.34,-0.34z"/>
   <path id="svg_110" fill="#e0e0e0" d="m347,308.47a3.82,3.82 0 0 1 -0.57,-1.75a8.83,8.83 0 0 1 3,-8.07a3.92,3.92 0 0 1 1.56,-1c0,0.07 -0.54,0.45 -1.31,1.23a9.65,9.65 0 0 0 -2.87,7.76c0.08,1.14 0.28,1.81 0.19,1.83z"/>
   <path id="svg_111" fill="#e0e0e0" d="m343,288.17a15.6,15.6 0 0 0 1.57,4.16a15.22,15.22 0 0 0 3.07,3.21c0,0.06 -0.53,-0.1 -1.23,-0.57a7.83,7.83 0 0 1 -2.28,-2.36a8,8 0 0 1 -1.15,-3.08a2.71,2.71 0 0 1 0.02,-1.36z"/>
   <path id="svg_112" fill="#e0e0e0" d="m340.55,296.18c0.08,-0.13 1.43,0.7 3.29,1.08s3.43,0.19 3.45,0.35a5.59,5.59 0 0 1 -3.55,0.16a5.53,5.53 0 0 1 -3.19,-1.59z"/>
   <path id="svg_113" fill="#263238" d="m393.29,375.83l-81.77,0a4,4 0 0 1 -4,-4l0,0a4,4 0 0 1 4,-4l81.77,0a4,4 0 0 1 4,4l0,0a4,4 0 0 1 -4,4z"/>
   <polygon id="svg_114" fill="#263238" points="317.27 375.83 303.81 454.05 307.49 454.05 325.19 375.83 317.27 375.83"/>
   <polygon id="svg_115" fill="#263238" points="349 375.83 334.69 454.05 338.38 454.05 356.92 375.83 349 375.83"/>
   <polygon id="svg_116" fill="#263238" points="384.09 375.83 400.05 454.05 396.36 454.05 376.17 375.83 384.09 375.83"/>
  </g>
  <path id="svg_117" fill="#161c1e" d="m529.15,132.45c-11.74,-1.39 -18,5.87 -20.6,11.47s-3.24,11.9 -3.55,18.08s-0.43,12.42 -2.06,18.38c-0.85,3.1 -2.11,6.11 -2.51,9.3s0.23,6.74 2.61,8.91"/>
  <path id="svg_118" fill="#161c1e" d="m540.61,138.6c3.1,6.31 0.82,14 2.44,20.8a69.17,69.17 0 0 0 3,8.18c2,5.47 2.85,11.31 3.65,17.1c0.4,2.91 0.77,6 -0.59,8.63a8.9,8.9 0 0 1 -8,4.34a11.45,11.45 0 0 1 -10.11,-6.65c-1.32,-3 -1.3,-6.33 -1.25,-9.57c0.2,-14.05 0.41,-28.16 2.88,-42"/>
  <path id="svg_119" fill="#2b1a0b" d="m594.49,170.42l-7.31,-2.82a1.77,1.77 0 0 0 -2.39,1.43c-0.21,1.75 -1.35,6.47 -2.57,4.81l-0.09,-0.1c-1.71,-2.46 -3.85,-3.79 -4.72,-3.75a1.14,1.14 0 0 0 -0.28,2.06a2,2 0 0 1 0.18,0.13a14.53,14.53 0 0 1 2,2.32a8.1,8.1 0 0 1 1.29,2.5c0.3,1 0.53,1.86 0.69,2.59l-0.44,4.87l-9,24.41l-15.77,-16.42s-8.44,18.64 -8.63,19.26c-0.14,0.42 7.9,8.79 13.19,14.23a14.93,14.93 0 0 0 25.23,-7l6.85,-34.39l-0.18,0l0.72,-2.5l2.3,-9.54a1.78,1.78 0 0 0 -1.07,-2.09z"/>
  <path id="svg_120" fill="#23346B" d="m564.25,397.13l0.17,-9.17l-17.16,-0.43l-0.4,13.41l1.06,0.09c4.73,0.38 24.08,1.62 27.28,0.74c3.55,-0.99 -10.95,-4.64 -10.95,-4.64z"/>
  <g id="svg_121" opacity="0.5">
   <path id="svg_122" fill="#fff" d="m553.09,401a6,6 0 0 0 -2.1,-3.72a5.81,5.81 0 0 0 -4,-1.35l-0.13,4.8l6.23,0.27z"/>
  </g>
  <g id="svg_123" opacity="0.4">
   <path id="svg_124" fill="#fff" d="m571.33,399.17s5.08,1.6 4.42,2.43s-20.26,0.32 -28.89,-0.66l0,-0.39l22.86,0.79s0.61,-2.15 1.61,-2.17z"/>
  </g>
  <path id="svg_125" fill="#263238" d="m546.63,400.53a0.85,0.85 0 0 0 0.29,0l0.85,0.08l3.12,0.21c2.63,0.17 6.27,0.34 10.29,0.45s7.67,0.13 10.31,0.1l3.13,0l0.84,0l0.3,0l-0.3,0l-0.85,0l-3.12,0c-2.64,0 -6.28,-0.06 -10.3,-0.17s-7.66,-0.26 -10.3,-0.38l-3.12,-0.15l-0.85,0l-0.29,-0.14z"/>
  <path id="svg_126" fill="#263238" d="m569.74,401.61a7.85,7.85 0 0 1 0.63,-1.48a6.59,6.59 0 0 1 1.09,-1.16a2.28,2.28 0 0 0 -1.27,1a2.36,2.36 0 0 0 -0.45,1.64z"/>
  <path id="svg_127" fill="#263238" d="m564.75,398.91s0.29,-0.26 0.55,-0.65s0.44,-0.73 0.39,-0.76s-0.3,0.26 -0.56,0.65s-0.43,0.72 -0.38,0.76z"/>
  <path id="svg_128" fill="#263238" d="m563.37,398.14s0.32,-0.14 0.62,-0.39s0.52,-0.51 0.48,-0.55s-0.31,0.13 -0.61,0.39s-0.52,0.5 -0.49,0.55z"/>
  <path id="svg_129" fill="#263238" d="m562.54,396.49a2,2 0 0 0 0.89,0.14a1.94,1.94 0 0 0 0.9,-0.07a2,2 0 0 0 -0.89,-0.14a1.94,1.94 0 0 0 -0.9,0.07z"/>
  <path id="svg_130" fill="#263238" d="m562.27,395.34a2.5,2.5 0 0 0 2,0.21a5.31,5.31 0 0 0 -1,-0.1a5.59,5.59 0 0 0 -1,-0.11z"/>
  <path id="svg_131" fill="#263238" d="m565.37,397.42a2.93,2.93 0 0 0 1.1,0a7.84,7.84 0 0 0 1.18,-0.23a3.37,3.37 0 0 0 0.68,-0.26a0.57,0.57 0 0 0 0.28,-0.34a0.43,0.43 0 0 0 -0.15,-0.44a2,2 0 0 0 -2.9,1.25a0.69,0.69 0 0 0 0,0.3a3.24,3.24 0 0 1 0.53,-0.93a2,2 0 0 1 1,-0.59a1.71,1.71 0 0 1 1.31,0.13c0.17,0.13 0.1,0.33 -0.1,0.44a2.78,2.78 0 0 1 -0.62,0.25a7.15,7.15 0 0 1 -1.15,0.27c-0.74,0.13 -1.16,0.12 -1.16,0.15z"/>
  <path id="svg_132" fill="#263238" d="m565.65,397.49a1.07,1.07 0 0 0 0.15,-0.77a1.79,1.79 0 0 0 -0.28,-0.81a1.13,1.13 0 0 0 -0.91,-0.59a0.45,0.45 0 0 0 -0.35,0.5a1.18,1.18 0 0 0 0.18,0.5a2.92,2.92 0 0 0 0.5,0.68a1.68,1.68 0 0 0 0.62,0.47s-0.22,-0.21 -0.51,-0.57a3.38,3.38 0 0 1 -0.45,-0.67c-0.14,-0.24 -0.23,-0.66 0,-0.7s0.56,0.26 0.72,0.49a1.66,1.66 0 0 1 0.29,0.72a3.79,3.79 0 0 1 0.04,0.75z"/>
  <path id="svg_133" fill="#263238" d="m547.1,395.85s0.49,0 1.27,0.07a5.42,5.42 0 0 1 4.4,3.71a12.2,12.2 0 0 1 0.29,1.23s0,-0.12 0,-0.35a4.18,4.18 0 0 0 -0.16,-0.93a5.22,5.22 0 0 0 -4.53,-3.8a4.14,4.14 0 0 0 -0.94,0c-0.21,0.02 -0.33,0.05 -0.33,0.07z"/>
  <path id="svg_134" fill="#263238" d="m549.06,388.75a33.5,33.5 0 0 0 -0.24,3.52a30.36,30.36 0 0 0 0,3.53a59.24,59.24 0 0 0 0.27,-7.05l-0.03,0z"/>
  <path id="svg_135" fill="#263238" d="m555.29,399.34a14.43,14.43 0 0 0 5,0.18c0,-0.06 -1.13,0 -2.51,-0.07s-2.48,-0.17 -2.49,-0.11z"/>
  <path id="svg_136" fill="#263238" d="m551.93,399.25s0.08,0.24 0.19,0.5s0.16,0.49 0.22,0.49s0.1,-0.27 0,-0.57s-0.34,-0.46 -0.41,-0.42z"/>
  <path id="svg_137" fill="#263238" d="m550.7,397.64s0.06,0.22 0.24,0.4s0.34,0.31 0.39,0.27s-0.07,-0.22 -0.24,-0.41s-0.35,-0.3 -0.39,-0.26z"/>
  <path id="svg_138" fill="#263238" d="m548.9,396.87c0,0.06 0.24,0.06 0.49,0.16s0.43,0.23 0.48,0.19s-0.09,-0.28 -0.41,-0.39s-0.57,-0.01 -0.56,0.04z"/>
  <path id="svg_139" fill="#263238" d="m547.62,396.5c0,0.05 0.08,0.14 0.22,0.2s0.27,0.06 0.29,0s-0.07,-0.15 -0.21,-0.2s-0.28,-0.06 -0.3,0z"/>
  <path id="svg_140" fill="#23346B" d="m613.16,340.78l-4,-8.25l-15.51,7.38l5.71,12.14l1,-0.4c4.39,-1.8 22.21,-9.45 24.66,-11.68c2.73,-2.49 -11.86,0.81 -11.86,0.81z"/>
  <g id="svg_141" opacity="0.5">
   <path id="svg_142" fill="#fff" d="m604.94,349.25a6,6 0 0 0 -3.56,-2.37a5.79,5.79 0 0 0 -4.16,0.6l2.06,4.34l5.66,-2.57z"/>
  </g>
  <g id="svg_143" opacity="0.4">
   <path id="svg_144" fill="#fff" d="m620.39,339.4s5.26,-0.87 5,0.17s-17.92,9.45 -26.06,12.48l-0.14,-0.36l20.81,-9.64s-0.49,-2.18 0.39,-2.65z"/>
  </g>
  <path id="svg_145" fill="#263238" d="m599,351.8l0.28,-0.1l0.79,-0.32l2.88,-1.22c2.42,-1 5.75,-2.53 9.38,-4.26s6.9,-3.36 9.24,-4.57l2.77,-1.46l0.74,-0.41a1.35,1.35 0 0 0 0.25,-0.15l-0.27,0.12l-0.76,0.37l-2.79,1.4c-2.36,1.18 -5.63,2.79 -9.26,4.51s-7,3.24 -9.36,4.32l-2.89,1.28l-0.77,0.35a1.16,1.16 0 0 0 -0.23,0.14z"/>
  <path id="svg_146" fill="#263238" d="m620.08,342.29a7.17,7.17 0 0 1 -0.11,-1.59a6.75,6.75 0 0 1 0.45,-1.54a2.76,2.76 0 0 0 -0.34,3.13z"/>
  <path id="svg_147" fill="#263238" d="m614.4,342.14c0.06,0 0.15,-0.36 0.21,-0.82s0.06,-0.85 0,-0.86a1.86,1.86 0 0 0 -0.21,0.83a2,2 0 0 0 0,0.85z"/>
  <path id="svg_148" fill="#263238" d="m612.83,342.08s0.22,-0.26 0.37,-0.63s0.24,-0.68 0.19,-0.7s-0.22,0.26 -0.38,0.62s-0.23,0.69 -0.18,0.71z"/>
  <path id="svg_149" fill="#263238" d="m611.34,341a2,2 0 0 0 0.86,-0.28c0.45,-0.21 0.8,-0.42 0.77,-0.47a2,2 0 0 0 -0.86,0.28a2.13,2.13 0 0 0 -0.77,0.47z"/>
  <path id="svg_150" fill="#263238" d="m610.58,340.09a1.84,1.84 0 0 0 1,-0.17a1.73,1.73 0 0 0 0.87,-0.57a5.85,5.85 0 0 0 -1,0.38a5.45,5.45 0 0 0 -0.87,0.36z"/>
  <path id="svg_151" fill="#263238" d="m614.29,340.54a3.23,3.23 0 0 0 1,-0.48a6.18,6.18 0 0 0 1,-0.74a3.26,3.26 0 0 0 0.49,-0.54a0.58,0.58 0 0 0 0.1,-0.42a0.44,0.44 0 0 0 -0.34,-0.33a2,2 0 0 0 -2,1.61a2.05,2.05 0 0 0 0,0.82a0.65,0.65 0 0 0 0.1,0.28a3.82,3.82 0 0 1 0.05,-1.07a2,2 0 0 1 0.59,-0.95a1.76,1.76 0 0 1 1.23,-0.49c0.21,0 0.24,0.26 0.11,0.45a3,3 0 0 1 -0.44,0.5a7.75,7.75 0 0 1 -0.9,0.76c-0.63,0.39 -1.01,0.57 -0.99,0.6z"/>
  <path id="svg_152" fill="#263238" d="m614.57,340.47a1.12,1.12 0 0 0 -0.22,-0.75a1.75,1.75 0 0 0 -0.61,-0.6a1.15,1.15 0 0 0 -1.08,-0.11a0.43,0.43 0 0 0 -0.08,0.6a1.21,1.21 0 0 0 0.38,0.37a3.31,3.31 0 0 0 0.75,0.38a1.46,1.46 0 0 0 0.77,0.13s-0.29,-0.08 -0.71,-0.27a3.42,3.42 0 0 1 -0.7,-0.4c-0.24,-0.14 -0.51,-0.48 -0.29,-0.64a1,1 0 0 1 0.86,0.11a1.77,1.77 0 0 1 0.59,0.51a4.58,4.58 0 0 1 0.34,0.67z"/>
  <path id="svg_153" fill="#263238" d="m597.28,347.4s0.43,-0.25 1.17,-0.5a5.46,5.46 0 0 1 3,-0.16a5.55,5.55 0 0 1 2.61,1.46c0.55,0.56 0.79,1 0.82,1a1.2,1.2 0 0 0 -0.15,-0.31a4.76,4.76 0 0 0 -0.57,-0.76a5.23,5.23 0 0 0 -5.75,-1.34a3.88,3.88 0 0 0 -0.85,0.43a1.31,1.31 0 0 0 -0.28,0.18z"/>
  <path id="svg_154" fill="#263238" d="m595.82,340.18a32,32 0 0 0 1.38,3.25a30.88,30.88 0 0 0 1.57,3.16a30.45,30.45 0 0 0 -1.38,-3.25a27.66,27.66 0 0 0 -1.57,-3.16z"/>
  <path id="svg_155" fill="#263238" d="m606.17,346.81a9.59,9.59 0 0 0 2.37,-0.85a10.06,10.06 0 0 0 2.18,-1.26c0,-0.05 -1,0.49 -2.27,1.07s-2.3,0.98 -2.28,1.04z"/>
  <path id="svg_156" fill="#263238" d="m603.13,348.25c0,0.06 0.18,0.18 0.4,0.36s0.36,0.36 0.42,0.33s0,-0.28 -0.29,-0.49s-0.52,-0.25 -0.53,-0.2z"/>
  <path id="svg_157" fill="#263238" d="m601.3,347.37c0,0.05 0.16,0.17 0.4,0.25s0.44,0.12 0.46,0.06s-0.15,-0.17 -0.39,-0.25s-0.45,-0.12 -0.47,-0.06z"/>
  <path id="svg_158" fill="#263238" d="m599.35,347.5s0.25,-0.06 0.51,-0.08s0.49,0 0.51,0s-0.2,-0.21 -0.53,-0.17s-0.52,0.21 -0.49,0.25z"/>
  <path id="svg_159" fill="#263238" d="m598,347.74c0,0.06 0.13,0.1 0.28,0.09s0.28,-0.07 0.27,-0.13s-0.13,-0.09 -0.28,-0.08s-0.27,0.07 -0.27,0.12z"/>
  <path id="svg_160" fill="#23346B" d="m486.27,216.56l3.55,-17.15c2.87,-16.12 26.14,-17.73 26.14,-17.73l17.73,-0.32s13.13,-1.78 21.25,7.35c8.41,9.45 12.82,14.17 12.82,14.17l-12.24,19.54l-8.36,-8.64a19.07,19.07 0 0 1 2.52,8.95c0,5.24 -5.47,7.67 -5.47,7.67l-1.37,13.32l6.8,13l-55.64,12.34c1.11,-9.35 0.42,-16.5 4.83,-23.47l4.32,-26.06l-16.88,-2.97z"/>
  <path id="svg_161" fill="#263238" d="m493.64,269s78.7,-22.95 85.8,-19.6s36.56,85.71 36.56,85.71l-22.58,11l-28.73,-70.22s-55.9,21.77 -64.87,19.92s-6.18,-26.81 -6.18,-26.81z"/>
  <path id="svg_162" fill="#263238" d="m526.85,266.69c1.12,0.37 44.27,14.49 47.26,20.08s-2.73,105.23 -2.73,105.23l-26.38,2.8l1.62,-97.73l-47.24,-1.19l27.47,-29.19z"/>
  <path id="svg_163" fill="#455a64" d="m499.12,295.88a3,3 0 0 0 0.69,-0.09l2,-0.35c1.71,-0.32 4.18,-0.81 7.22,-1.46c6.09,-1.29 14.47,-3.24 23.59,-5.87c4.57,-1.33 8.88,-2.71 12.77,-4.05s7.35,-2.68 10.21,-3.91c1.44,-0.58 2.73,-1.16 3.85,-1.68s2.09,-1 2.87,-1.35l1.79,-0.9a2.91,2.91 0 0 0 0.6,-0.35a3.39,3.39 0 0 0 -0.65,0.25l-1.83,0.81c-0.79,0.36 -1.76,0.79 -2.9,1.26s-2.43,1 -3.88,1.6c-2.87,1.18 -6.35,2.43 -10.23,3.79s-8.2,2.67 -12.75,4c-9.11,2.62 -17.46,4.63 -23.52,6l-7.18,1.63l-1.95,0.45a2.71,2.71 0 0 0 -0.7,0.22z"/>
  <path id="svg_164" fill="#455a64" d="m574.77,308.91a8.25,8.25 0 0 0 0.22,-1.39c0.1,-1 0.23,-2.29 0.39,-3.81s0.33,-3.56 0.52,-5.66a25.6,25.6 0 0 0 0,-7a10.85,10.85 0 0 0 -3.53,-6.05a18.17,18.17 0 0 0 -4.83,-3.09a38.32,38.32 0 0 0 -3.54,-1.41a6.82,6.82 0 0 0 -1.36,-0.39c0,0.1 1.87,0.76 4.77,2.15a19.28,19.28 0 0 1 4.66,3.11a10.61,10.61 0 0 1 3.33,5.78a26.29,26.29 0 0 1 0,6.86c-0.14,2.1 -0.28,4 -0.4,5.67s-0.16,2.81 -0.22,3.82a6.41,6.41 0 0 0 -0.01,1.41z"/>
  <path id="svg_165" fill="#455a64" d="m577.63,143.1s6.61,-1.26 16.11,-9.89s14.19,-20.33 15.32,-20.24s6.14,-2.06 15,18.66s5,25.36 3.11,25.27s-14.47,-4 -22.43,-3.31s-18.28,4.52 -18.28,4.52l-8.83,-15.01z"/>
  <path id="svg_166" fill="#263238" d="m563.35,153.86l2.12,4.32l0.95,1.94a5.56,5.56 0 0 0 7.18,2.67l14.23,-4.51l-7.67,-19l-14.29,7.1a5.57,5.57 0 0 0 -2.52,7.48z"/>
  <path id="svg_167" fill="#263238" d="m571.28,160.91l4.24,8.93l2.26,-0.56l14.32,12.34l4.33,-7.9s-8.56,-4 -10.07,-7.12s0.35,-3.78 0.35,-3.78l-3.94,-4.75l-11.49,2.84z"/>
  <path id="svg_168" fill="#263238" d="m623.25,132c4.69,11.22 6.49,21.15 4,22.18s-8.27,-7.23 -13,-18.45s-6.49,-21.15 -4,-22.18s8.31,7.21 13,18.45z"/>
  <polygon id="svg_169" fill="#455a64" points="561.97 159.98 565.82 158.89 563.58 154.33 560.67 156.03 561.97 159.98"/>
  <polygon id="svg_170" fill="#455a64" points="584.12 159.7 573.67 165.95 572.46 163.41 584.12 159.7"/>
  <polygon id="svg_171" fill="#455a64" points="563.58 154.33 565.82 158.89 565.03 159.12 563.23 154.53 563.58 154.33"/>
  <g id="svg_172" opacity="0.2">
   <path id="svg_173" d="m587.26,156.87l2.61,-0.88"/>
  </g>
  <path id="svg_174" fill="#455a64" d="m566.18,155.44a41.64,41.64 0 0 0 8.42,-3.52a21.44,21.44 0 0 0 -4.3,1.54a21.9,21.9 0 0 0 -4.12,1.98z"/>
  <path id="svg_175" fill="#455a64" d="m565.09,152.73a17.4,17.4 0 0 0 3.89,-1.51a18.46,18.46 0 0 0 3.7,-2a35.19,35.19 0 0 0 -7.59,3.47l0,0.04z"/>
  <path id="svg_176" fill="#455a64" d="m567.59,158.29c0,0.07 0.47,0 1.2,-0.23l1.28,-0.38c0.47,-0.16 1,-0.39 1.5,-0.61a16.51,16.51 0 0 0 3.69,-1.93a19.34,19.34 0 0 0 -3.88,1.48c-0.53,0.22 -1,0.46 -1.48,0.64l-1.22,0.47c-0.68,0.27 -1.11,0.5 -1.09,0.56z"/>
  <path id="svg_177" fill="#455a64" d="m613.12,129.23s5.81,-3.38 8.72,4.42s-3.14,8.91 -3.14,8.91a51.42,51.42 0 0 1 -5.58,-13.33z"/>
  <path id="svg_178" fill="#263238" d="m607.3,119.86a8.87,8.87 0 0 0 0.18,1.48c0.16,0.94 0.37,2.32 0.69,4l0.72,2.73c0.12,0.49 0.26,1 0.4,1.51l0.21,0.8c0.08,0.26 0.18,0.52 0.27,0.79c0.38,1.08 0.78,2.2 1.2,3.37l0.31,0.88c0.1,0.3 0.25,0.58 0.38,0.88l0.8,1.77c0.27,0.6 0.54,1.19 0.8,1.78c0.14,0.28 0.25,0.58 0.41,0.86l0.45,0.82l1.73,3.12c0.14,0.25 0.27,0.5 0.42,0.74l0.46,0.68l0.87,1.31l1.57,2.34c1.06,1.35 1.94,2.42 2.55,3.16a9.35,9.35 0 0 0 1,1.12a7.85,7.85 0 0 0 -0.84,-1.23l-2.42,-3.27c-0.47,-0.72 -1,-1.51 -1.51,-2.35c-0.28,-0.42 -0.56,-0.86 -0.85,-1.31l-0.44,-0.68c-0.15,-0.24 -0.27,-0.49 -0.41,-0.73l-1.69,-3.12l-0.45,-0.82c-0.15,-0.27 -0.26,-0.57 -0.4,-0.86c-0.26,-0.58 -0.53,-1.17 -0.79,-1.76l-0.8,-1.76c-0.13,-0.29 -0.27,-0.57 -0.38,-0.87l-0.31,-0.87c-0.43,-1.16 -0.83,-2.27 -1.22,-3.34c-0.09,-0.26 -0.2,-0.52 -0.28,-0.79s-0.15,-0.52 -0.22,-0.78q-0.23,-0.78 -0.42,-1.5c-0.28,-1 -0.53,-1.87 -0.77,-2.7c-0.35,-1.65 -0.63,-3 -0.84,-4a7.21,7.21 0 0 0 -0.38,-1.4z"/>
  <path id="svg_179" fill="#2b1a0b" d="m587.36,168.1a9.64,9.64 0 0 0 0.16,3.93c0.11,0.44 0.39,1 0.84,0.91a0.86,0.86 0 0 0 0.55,-0.46a4.69,4.69 0 0 0 0.76,-2.29a7.76,7.76 0 0 0 0.22,3.52c0.17,0.53 0.49,1.11 1,1.16s1,-0.63 1.11,-1.23a7.81,7.81 0 0 1 0.19,-1.82a16.67,16.67 0 0 0 -0.05,3.53a2.7,2.7 0 0 0 0.25,1.05a1,1 0 0 0 0.84,0.61a1.07,1.07 0 0 0 0.93,-0.6a2.87,2.87 0 0 0 0.3,-1.12c0.16,-1.3 0.26,-2.6 0.29,-3.91"/>
  <path id="svg_180" fill="#161c1e" d="m545.48,182.68c0,-0.2 0.67,-0.32 1.66,-0.83a7.67,7.67 0 0 0 3.19,-3.25a8.51,8.51 0 0 0 1,-3a10.37,10.37 0 0 0 -0.22,-3.59a23.14,23.14 0 0 0 -3.85,-7.79a61.44,61.44 0 0 1 -5.1,-7.9a18.93,18.93 0 0 1 -1.94,-7.67a15.92,15.92 0 0 1 0.65,-5.25c0.37,-1.19 0.75,-1.77 0.91,-1.73s0.14,0.73 0.08,1.91a25.18,25.18 0 0 0 0.2,4.91a19.94,19.94 0 0 0 2.23,6.74a90.13,90.13 0 0 0 5.11,7.51a23,23 0 0 1 4.06,8.8a11.78,11.78 0 0 1 0,4.43a9.84,9.84 0 0 1 -1.52,3.57a7.61,7.61 0 0 1 -4.42,3.23c-1.34,0.31 -2.04,0.06 -2.04,-0.09z"/>
  <path id="svg_181" fill="#2b1a0b" d="m532.9,181.22c0.11,-3.71 0.27,-7.14 0.27,-7.14s7.47,-1 7.79,-8.59s-0.48,-25.22 -0.48,-25.22l-13.78,-6.59l-12,13.72l-0.13,33.5a9.16,9.16 0 0 0 9.12,9.2l0,0a9.16,9.16 0 0 0 9.21,-8.88z"/>
  <path id="svg_182" fill="#fff" d="m538.84,153.23a1,1 0 1 1 -1,-1a1,1 0 0 1 1,1z"/>
  <path id="svg_183" fill="#161c1e" d="m540.13,152c-0.12,0.13 -0.83,-0.47 -1.86,-0.51s-1.78,0.48 -1.89,0.34s0.07,-0.29 0.4,-0.53a2.43,2.43 0 0 1 3,0.13c0.31,0.31 0.41,0.57 0.35,0.57z"/>
  <path id="svg_184" fill="#fff" d="m527.85,153.23a1,1 0 1 1 -1.9,0a1,1 0 1 1 1.9,0z"/>
  <path id="svg_185" fill="#161c1e" d="m528.78,152.25c-0.12,0.13 -0.84,-0.47 -1.86,-0.51s-1.79,0.49 -1.9,0.35s0.07,-0.3 0.41,-0.54a2.42,2.42 0 0 1 1.51,-0.44a2.46,2.46 0 0 1 1.48,0.57c0.31,0.32 0.42,0.52 0.36,0.57z"/>
  <path id="svg_186" fill="#fff" d="m532.64,161.06a7,7 0 0 1 1.67,-0.26c0.26,0 0.51,-0.06 0.56,-0.25a1.6,1.6 0 0 0 -0.16,-0.84l-0.75,-2.16a40.57,40.57 0 0 1 -1.66,-5.65a37.35,37.35 0 0 1 2.08,5.5l0.71,2.18a1.69,1.69 0 0 1 0.12,1.1a0.67,0.67 0 0 1 -0.44,0.4a1.75,1.75 0 0 1 -0.44,0a6.47,6.47 0 0 1 -1.69,-0.02z"/>
  <path id="svg_187" fill="#2b1a0b" d="m533.17,174.08a18.25,18.25 0 0 1 -9.92,-3.23s2.34,5.56 9.79,5.1l0.13,-1.87z"/>
  <path id="svg_188" fill="#fff" d="m532.28,163.75a2,2 0 0 0 -1.19,-1.46a1.56,1.56 0 0 0 -1.32,0a1.11,1.11 0 0 0 -0.61,1.12a1.29,1.29 0 0 0 1.06,1a3.56,3.56 0 0 0 1.52,-0.1a1,1 0 0 0 0.39,-0.15a0.36,0.36 0 0 0 0.17,-0.36"/>
  <path id="svg_189" fill="#2b1a0b" d="m529.73,161c-0.07,0 -0.19,0.28 -0.15,0.77a2.7,2.7 0 0 0 2.61,2.46c0.5,0 0.78,-0.13 0.77,-0.2s-1.2,-0.06 -2.15,-0.95s-0.92,-2.08 -1.08,-2.08z"/>
  <path id="svg_190" fill="#161c1e" d="m541.11,139.42a9.17,9.17 0 0 1 -9.06,8l2.07,-4.57c-1.84,2.15 -3.75,4.35 -6.27,5.63s-5.83,1.43 -8,-0.4c-0.69,1.87 -0.68,3.94 -1.32,5.83s-2.13,9.68 -4.11,9.39c-1.81,-0.27 -3.11,-8.13 -3.57,-9.9a16.18,16.18 0 0 1 3.56,-14.17a19.4,19.4 0 0 1 16,-6.77a13.46,13.46 0 0 1 7.43,2.6a10.37,10.37 0 0 1 3.66,5.83"/>
  <path id="svg_191" fill="#161c1e" d="m541.37,148.55a6.29,6.29 0 0 1 -2.13,-3.42a18.35,18.35 0 0 1 -0.51,-4.06c0,-0.39 0,-0.9 0.42,-1s0.68,0.28 0.86,0.62a13.18,13.18 0 0 1 1.37,8.27l-0.25,-0.23"/>
  <path id="svg_192" fill="#161c1e" d="m511.4,144.49c-4.37,16.45 -5.78,33.72 -3.55,48.29c0.23,1.5 -0.2,3.08 0.28,4.53a4,4 0 0 0 3.21,2.9c1.42,0.12 3,-0.75 4.2,0c0.94,0.57 1.17,1.81 1.87,2.65a3.53,3.53 0 0 0 3.69,0.89a6.24,6.24 0 0 0 3.09,-2.45c2.72,-3.79 2.6,-9 1.3,-13.47s-3.6,-8.63 -5,-13.09c-2.59,-8.33 -1.84,-17.28 -1.06,-26q0.34,-3.81 0.68,-7.62"/>
  <path id="svg_193" fill="#2b1a0b" d="m553.64,214.13c3.57,-3.63 3.25,-4 2.77,-4.32c-1.31,-1 -6.51,6.15 -6.26,3.95s7.35,-7.93 6,-8.87c-1.83,-1.23 -7.14,6.32 -7.64,6.92s-1.37,-0.11 -0.89,-0.63c0.68,-0.75 7.69,-8.8 5.9,-10c-1,-0.68 -2,1.25 -2,1.25s-6,8 -6.84,7.42s2.54,-5.45 3.79,-7s1,-2.75 -0.09,-2.75c-0.76,0 -4.7,4.64 -5.9,6.2s-4.42,5.9 -4.54,2.43c0,-0.05 0,-0.1 0,-0.16c0,-3.42 -1.17,-6.05 -2,-6.59a1.19,1.19 0 0 0 -1.71,1.27a1.45,1.45 0 0 0 0.11,0.49a1.7,1.7 0 0 1 0.09,0.24a17,17 0 0 1 0.41,3.51a9.1,9.1 0 0 1 -0.42,3.11c-0.36,1.15 -0.72,2.12 -1,2.93l-0.52,0.63l-29.09,16.45l0,-13.84s-16.06,-0.7 -16.65,-0.24c-0.4,0.31 -1.49,13.47 0,22a17.05,17.05 0 0 0 28.28,9.76l24.16,-22l0.09,0.07l3.44,-2.83l0.67,-1.06l0.8,-0.73a108.37,108.37 0 0 0 9.04,-7.61z"/>
  <path id="svg_194" fill="#2b1a0b" d="m257.1,219.93s13.21,28.94 14.06,30.06s17.4,11.69 17.4,11.69l16.06,-0.91l-18.38,-19.27l-15.44,-30.58l-13.7,9.01z"/>
  <path id="svg_195" fill="#161c1e" d="m217.39,151.11a1.61,1.61 0 0 1 -0.4,1.7a1.64,1.64 0 0 1 -1.74,0.3c-1.07,-0.47 -1.29,-1.92 -1.14,-3.08s0.47,-2.43 -0.08,-3.48a7.76,7.76 0 0 0 -1.91,-1.88a5.08,5.08 0 0 1 -1.64,-4.23a4.28,4.28 0 0 1 2.75,-3.52c1.52,-0.51 3.44,-0.14 4.53,-1.32c0.79,-0.85 0.76,-2.18 1.36,-3.18c0.91,-1.56 3,-1.91 4.81,-1.76s3.64,0.62 5.37,0.09c1.44,-0.44 2.58,-1.53 3.91,-2.23a7.89,7.89 0 0 1 10.86,10.26a5,5 0 0 1 -2.32,2.56"/>
  <path id="svg_196" fill="#2b1a0b" d="m219.19,181.72l17,-1.36c0.11,-2 0,-9.66 0,-9.66s7.06,-1.1 7.15,-8.16s-1.14,-23.3 -1.14,-23.3l0,0a24.56,24.56 0 0 0 -24.67,3.1l-1,0.81l2.66,38.57z"/>
  <path id="svg_197" fill="#DDDDDD" d="m239.77,151.23a1,1 0 1 1 1.45,-0.07a1,1 0 0 1 -1.45,0.07z"/>
  <path id="svg_198" fill="#2b1a0b" d="m242.24,149.77c-0.11,0.13 -0.8,-0.41 -1.78,-0.41s-1.68,0.5 -1.78,0.37s0,-0.28 0.36,-0.51a2.36,2.36 0 0 1 1.43,-0.45a2.39,2.39 0 0 1 1.42,0.48c0.3,0.25 0.4,0.47 0.35,0.52z"/>
  <path id="svg_199" fill="#DDDDDD" d="m230.4,150.62a1,1 0 1 1 -1.08,1.75a1,1 0 0 1 -0.32,-1.37a1,1 0 0 1 1.4,-0.38z"/>
  <path id="svg_200" fill="#2b1a0b" d="m231.67,150.63c-0.11,0.12 -0.81,-0.41 -1.78,-0.41s-1.68,0.49 -1.79,0.37s0.06,-0.28 0.37,-0.51a2.3,2.3 0 0 1 1.43,-0.45a2.33,2.33 0 0 1 1.42,0.48c0.3,0.24 0.4,0.47 0.35,0.52z"/>
  <path id="svg_201" fill="#DDDDDD" d="m235.57,158.66a4.61,4.61 0 0 1 1.58,-0.33c0.25,0 0.45,-0.09 0.47,-0.22a1.41,1.41 0 0 0 -0.18,-0.73c-0.25,-0.65 -0.51,-1.3 -0.77,-2a27.12,27.12 0 0 1 -1.67,-5.2a27.58,27.58 0 0 1 2.18,5c0.26,0.69 0.5,1.35 0.73,2a1.56,1.56 0 0 1 0.14,1.05a0.66,0.66 0 0 1 -0.44,0.41a1.84,1.84 0 0 1 -0.43,0.06a4.73,4.73 0 0 1 -1.61,-0.04z"/>
  <path id="svg_202" fill="#fff" d="m232.41,159.74a18.43,18.43 0 0 0 4.77,1.38a2.68,2.68 0 0 1 -3.17,1.07c-2.12,-0.77 -1.6,-2.45 -1.6,-2.45z"/>
  <path id="svg_203" fill="#2b1a0b" d="m236.15,170.6a16.44,16.44 0 0 1 -9.21,-2.62s2.17,5.09 9.22,4.45l-0.01,-1.83z"/>
  <path id="svg_204" fill="#161c1e" d="m242.3,141s-4.13,2.39 -9.92,0c-3.8,-1.56 -8.13,-2.13 -9,-1.33s-0.81,4.6 -4.35,6c0,0 0.78,7.18 -2.11,7.13s-1.92,-11.31 -1.92,-11.31l6.77,-4l7.55,-2l7.3,0.49l5.7,1.11l-0.02,3.91z"/>
  <path id="svg_205" fill="#2b1a0b" d="m217.3,150.47c-0.12,-0.05 -4.86,-1.44 -4.7,3.4s5,3.68 5,3.54s-0.3,-6.94 -0.3,-6.94z"/>
  <path id="svg_206" fill="#2b1a0b" d="m216,155.62s-0.08,0.07 -0.22,0.14a0.93,0.93 0 0 1 -0.63,0a2.07,2.07 0 0 1 -1,-1.84a2.78,2.78 0 0 1 0.19,-1.21a1,1 0 0 1 0.62,-0.67a0.42,0.42 0 0 1 0.5,0.22c0.07,0.13 0,0.23 0.07,0.23s0.1,-0.08 0,-0.28a0.48,0.48 0 0 0 -0.2,-0.29a0.58,0.58 0 0 0 -0.47,-0.11a1.17,1.17 0 0 0 -0.85,0.77a2.88,2.88 0 0 0 -0.25,1.36a2.19,2.19 0 0 0 1.29,2.05a0.92,0.92 0 0 0 0.77,-0.16c0.18,-0.09 0.24,-0.2 0.18,-0.21z"/>
  <path id="svg_209" fill="#141616" d="m237.51,148.19c-0.16,-0.24 0.75,-1 2.14,-1.08s2.36,0.64 2.23,0.88s-1.07,0.1 -2.18,0.16s-2.05,0.3 -2.19,0.04z"/>
  <path id="svg_210" fill="#141616" d="m226.67,147.28c-0.16,-0.23 0.74,-1 2.14,-1.07s2.36,0.63 2.23,0.88s-1.07,0.1 -2.19,0.16s-2.04,0.29 -2.18,0.03z"/>
  <path id="svg_211" fill="#23346B" d="m186.67,445.89l-1.67,7.11s-11.57,15 -15.14,14.29c-2.33,-0.48 0.54,-4.4 4.94,-15.81l0.92,-4.71l10.95,-0.88z"/>
  <path id="svg_212" fill="#263238" d="m169.38,465a1.7,1.7 0 0 0 0.62,0.59a2.15,2.15 0 0 0 2.21,-0.31a63.71,63.71 0 0 0 5.76,-5.46c2.14,-2.24 3.94,-4.41 5.21,-6c0.56,-0.72 1,-1.36 1.48,-1.9l0.4,-0.52c0.09,-0.12 0.14,-0.18 0.15,-0.17l-0.12,0.19l-0.37,0.55c-0.33,0.46 -0.81,1.13 -1.43,1.94a73.62,73.62 0 0 1 -5.17,6.06a56.63,56.63 0 0 1 -5.82,5.43a2.77,2.77 0 0 1 -1.31,0.48a2,2 0 0 1 -1,-0.22a1.24,1.24 0 0 1 -0.48,-0.45a0.84,0.84 0 0 1 -0.13,-0.21z"/>
  <path id="svg_213" fill="#263238" d="m171,460.21a1.87,1.87 0 0 1 0.95,-0.11a5,5 0 0 1 2.18,0.76a4,4 0 0 1 1.59,1.67a2.08,2.08 0 0 1 0.25,0.93s-0.11,-0.35 -0.38,-0.86a4.24,4.24 0 0 0 -1.59,-1.6a5.27,5.27 0 0 0 -2.08,-0.79a9,9 0 0 0 -0.92,0z"/>
  <path id="svg_214" fill="#263238" d="m182,456.68a1.85,1.85 0 0 1 -0.14,-0.34a6,6 0 0 1 -0.22,-1a5.16,5.16 0 0 1 0.54,-3.21a5,5 0 0 1 2.33,-2.28a4.22,4.22 0 0 1 1,-0.29c0.23,0 0.36,0 0.36,0a7.8,7.8 0 0 0 -1.25,0.45a5.1,5.1 0 0 0 -2.22,2.23a5.48,5.48 0 0 0 -0.58,3.1c0.03,0.83 0.18,1.33 0.18,1.34z"/>
  <path id="svg_215" fill="#263238" d="m185.94,447.09c0.05,0 -0.21,1 -0.43,2.26a7.76,7.76 0 0 1 -0.6,2.22s0.18,-1 0.4,-2.26a7.23,7.23 0 0 1 0.63,-2.22z"/>
  <path id="svg_216" fill="#263238" d="m174.58,452.44a2.73,2.73 0 0 1 1.49,0a2.68,2.68 0 0 1 1.34,0.63c0,0.05 -0.61,-0.25 -1.39,-0.43s-1.43,-0.14 -1.44,-0.2z"/>
  <path id="svg_217" fill="#263238" d="m174.35,453.65a1.82,1.82 0 0 1 1.25,0a1.79,1.79 0 0 1 1.09,0.6c0,0.05 -0.49,-0.25 -1.14,-0.4s-1.19,-0.14 -1.2,-0.2z"/>
  <path id="svg_218" fill="#263238" d="m173.42,455.17a1.89,1.89 0 0 1 2.39,0.54a5.25,5.25 0 0 0 -1.14,-0.5a5.6,5.6 0 0 0 -1.25,-0.04z"/>
  <path id="svg_219" fill="#263238" d="m175.38,451.93s0.53,-0.14 1.36,-0.46a10.14,10.14 0 0 0 1.39,-0.67a9.06,9.06 0 0 0 0.77,-0.49c0.24,-0.18 0.5,-0.44 0.49,-0.71s-0.35,-0.42 -0.62,-0.36a1.69,1.69 0 0 0 -0.71,0.48c-0.43,0.4 -0.79,0.79 -1.09,1.12c-0.59,0.66 -0.92,1.1 -0.94,1.08s0.05,-0.13 0.19,-0.34s0.36,-0.5 0.64,-0.84a14.6,14.6 0 0 1 1.06,-1.16a1.82,1.82 0 0 1 0.81,-0.53a0.67,0.67 0 0 1 0.87,0.54a1.19,1.19 0 0 1 -0.58,0.88a7.74,7.74 0 0 1 -0.79,0.49a9.59,9.59 0 0 1 -1.44,0.65a7.19,7.19 0 0 1 -1,0.27a1.43,1.43 0 0 1 -0.41,0.05z"/>
  <path id="svg_220" fill="#263238" d="m176,451.79a11.81,11.81 0 0 1 -0.21,-1.3a5.79,5.79 0 0 0 -0.4,-1.33a2.94,2.94 0 0 0 -0.43,-0.69c-0.18,-0.2 -0.44,-0.37 -0.66,-0.24s-0.25,0.44 -0.22,0.7a3.73,3.73 0 0 0 0.23,0.78a4.55,4.55 0 0 0 0.76,1.17c0.53,0.59 0.95,0.88 0.93,0.91a1.09,1.09 0 0 1 -0.31,-0.18a6.32,6.32 0 0 1 -0.69,-0.61a4.52,4.52 0 0 1 -0.83,-1.19a3.5,3.5 0 0 1 -0.25,-0.83a0.88,0.88 0 0 1 0.32,-0.91a0.76,0.76 0 0 1 0.91,0.29a2.92,2.92 0 0 1 0.46,0.74a4.93,4.93 0 0 1 0.36,1.39c0.05,0.41 0.07,0.73 0.08,1a1.32,1.32 0 0 1 -0.05,0.3z"/>
  <g id="svg_221" opacity="0.4">
   <path id="svg_222" d="m185,453l0.81,-3.39s-2.83,0.52 -3.57,2.64a9,9 0 0 0 -0.55,3.63l-6.16,6.64s-1.55,-3 -4.35,-2.3c0,0 -2.2,4.85 -2.13,6.06s1.48,1.07 2,0.84a24.53,24.53 0 0 0 5.52,-4.35c3.23,-3.43 6.84,-7.72 8.43,-9.77z"/>
  </g>
  <path id="svg_223" fill="#23346B" d="m244.18,449.47l0,-9.44l-17.66,-0.21l-0.23,13.8l1.09,0.08c4.88,0.33 24.8,1.34 28.07,0.39c3.7,-1.09 -11.27,-4.62 -11.27,-4.62z"/>
  <g id="svg_224" opacity="0.4">
   <path id="svg_225" d="m232.75,453.56a6.19,6.19 0 0 0 -2.21,-3.8a6,6 0 0 0 -4.12,-1.33l-0.06,4.94l6.39,0.19z"/>
  </g>
  <g id="svg_226" opacity="0.4">
   <path id="svg_227" d="m251.49,451.47s5.25,1.58 4.58,2.44s-20.84,0.6 -29.73,-0.29l0,-0.4l23.53,0.5s0.59,-2.22 1.62,-2.25z"/>
  </g>
  <path id="svg_228" fill="#263238" d="m226.1,453.21a1.4,1.4 0 0 0 0.3,0l0.87,0.06l3.21,0.18c2.71,0.13 6.46,0.26 10.6,0.32s7.89,0 10.61,0l3.21,-0.1l0.87,0l0.31,0l-1.18,0l-3.21,0c-2.72,0 -6.47,0 -10.61,0s-7.88,-0.17 -10.59,-0.26l-3.21,-0.11l-0.88,0l-0.3,-0.09z"/>
  <path id="svg_229" fill="#263238" d="m249.89,454a8,8 0 0 1 0.62,-1.53a7.3,7.3 0 0 1 1.11,-1.21a2.35,2.35 0 0 0 -1.29,1.1a2.38,2.38 0 0 0 -0.44,1.64z"/>
  <path id="svg_230" fill="#263238" d="m244.71,451.29s0.31,-0.27 0.57,-0.67s0.44,-0.76 0.39,-0.79s-0.31,0.27 -0.57,0.67s-0.44,0.76 -0.39,0.79z"/>
  <path id="svg_231" fill="#263238" d="m243.29,450.51c0,0.05 0.32,-0.14 0.63,-0.4s0.53,-0.53 0.49,-0.57s-0.32,0.13 -0.63,0.4s-0.53,0.53 -0.49,0.57z"/>
  <path id="svg_232" fill="#263238" d="m242.41,448.83a4.13,4.13 0 0 0 1.85,0.05a2.07,2.07 0 0 0 -0.92,-0.13a2.17,2.17 0 0 0 -0.93,0.08z"/>
  <path id="svg_233" fill="#263238" d="m242.11,447.65a1.8,1.8 0 0 0 1,0.32a1.86,1.86 0 0 0 1.06,-0.13a6.33,6.33 0 0 0 -1,-0.09a6.61,6.61 0 0 0 -1.06,-0.1z"/>
  <path id="svg_234" fill="#263238" d="m245.33,449.75a3,3 0 0 0 1.14,0a6.53,6.53 0 0 0 1.21,-0.25a3.52,3.52 0 0 0 0.7,-0.28a0.56,0.56 0 0 0 0.28,-0.35a0.44,0.44 0 0 0 -0.16,-0.45a2.09,2.09 0 0 0 -2.59,0.57a2.22,2.22 0 0 0 -0.38,0.76a0.58,0.58 0 0 0 0,0.3a3.26,3.26 0 0 1 0.53,-1a2.05,2.05 0 0 1 1,-0.62a1.81,1.81 0 0 1 1.35,0.11c0.18,0.14 0.1,0.35 -0.1,0.47a3,3 0 0 1 -0.64,0.26a7.35,7.35 0 0 1 -1.17,0.29c-0.73,0.16 -1.17,0.16 -1.17,0.19z"/>
  <path id="svg_235" fill="#263238" d="m245.63,449.81a1.16,1.16 0 0 0 0.14,-0.78a2.09,2.09 0 0 0 -0.3,-0.84a1.16,1.16 0 0 0 -0.94,-0.59a0.46,0.46 0 0 0 -0.36,0.52a1.29,1.29 0 0 0 0.19,0.51a3.12,3.12 0 0 0 0.53,0.7c0.35,0.35 0.63,0.49 0.64,0.46s-0.22,-0.2 -0.53,-0.57a4.44,4.44 0 0 1 -0.47,-0.68c-0.15,-0.25 -0.25,-0.68 0,-0.73s0.57,0.27 0.75,0.5a1.87,1.87 0 0 1 0.31,0.74a4.54,4.54 0 0 1 0.04,0.76z"/>
  <path id="svg_236" fill="#263238" d="m226.52,448.38s0.5,0 1.3,0.06a5.51,5.51 0 0 1 4.58,3.75c0.26,0.76 0.28,1.27 0.32,1.27s0,-0.13 0,-0.36a5.38,5.38 0 0 0 -4.89,-4.81a5,5 0 0 0 -1,0a1.05,1.05 0 0 0 -0.31,0.09z"/>
  <path id="svg_237" fill="#263238" d="m228.44,441.05a60,60 0 0 0 -0.18,7.26a60,60 0 0 0 0.18,-7.26z"/>
  <path id="svg_238" fill="#263238" d="m235,451.86a9.83,9.83 0 0 0 2.58,0.29a10.16,10.16 0 0 0 2.59,-0.17c0,-0.06 -1.16,0 -2.59,0s-2.58,-0.18 -2.58,-0.12z"/>
  <path id="svg_239" fill="#263238" d="m231.53,451.81c0,0.05 0.09,0.25 0.21,0.52s0.17,0.5 0.23,0.49s0.1,-0.27 0,-0.58s-0.4,-0.47 -0.44,-0.43z"/>
  <path id="svg_240" fill="#263238" d="m230.25,450.17c-0.05,0 0.07,0.23 0.25,0.42s0.36,0.3 0.4,0.26s-0.07,-0.22 -0.25,-0.41s-0.36,-0.31 -0.4,-0.27z"/>
  <path id="svg_241" fill="#263238" d="m228.39,449.41c0,0.06 0.24,0.06 0.5,0.15s0.45,0.24 0.49,0.2s-0.09,-0.29 -0.42,-0.4s-0.59,-0.01 -0.57,0.05z"/>
  <path id="svg_242" fill="#263238" d="m227.06,449c0,0.06 0.08,0.15 0.23,0.21s0.28,0.06 0.3,0s-0.08,-0.14 -0.22,-0.2s-0.28,-0.01 -0.31,-0.01z"/>
  <polyline id="svg_243" fill="#263238" points="256.2 262.12 247.96 445.4 220.44 445.98 225.01 292.54 194.06 447.15 167.9 447.15 202.84 262.12"/>
  <polygon id="svg_244" fill="#455a64" points="195.42 444.66 194.79 447.37 167.9 447.73 168.31 443.5 195.42 444.66"/>
  <path id="svg_245" fill="#455a64" d="m174.48,444.54c0.14,0 0.2,0.37 0.13,0.78s-0.23,0.72 -0.38,0.7s-0.2,-0.38 -0.13,-0.79s0.24,-0.72 0.38,-0.69z"/>
  <path id="svg_246" fill="#455a64" d="m175.49,438.54c0.14,0 0.14,0.71 0,1.54s-0.36,1.48 -0.5,1.46s-0.15,-0.72 0,-1.55s0.36,-1.48 0.5,-1.45z"/>
  <path id="svg_247" fill="#455a64" d="m176.5,432.53c0.14,0 0.14,0.72 0,1.55s-0.36,1.48 -0.51,1.45s-0.14,-0.71 0,-1.54s0.37,-1.48 0.51,-1.46z"/>
  <path id="svg_248" fill="#455a64" d="m177.51,426.53c0.14,0 0.14,0.71 0,1.54s-0.37,1.48 -0.51,1.46s-0.14,-0.72 0,-1.54s0.37,-1.49 0.51,-1.46z"/>
  <path id="svg_249" fill="#455a64" d="m178.52,420.52c0.14,0 0.14,0.72 0,1.55s-0.37,1.48 -0.51,1.46s-0.14,-0.72 0,-1.55s0.37,-1.48 0.51,-1.46z"/>
  <path id="svg_250" fill="#455a64" d="m179.53,414.52c0.14,0 0.15,0.71 0,1.54s-0.37,1.48 -0.51,1.46s-0.15,-0.71 0,-1.54s0.37,-1.49 0.51,-1.46z"/>
  <path id="svg_251" fill="#455a64" d="m180.55,408.51c0.14,0 0.14,0.72 0,1.55s-0.37,1.48 -0.51,1.46s-0.14,-0.72 0,-1.55s0.37,-1.48 0.51,-1.46z"/>
  <path id="svg_252" fill="#455a64" d="m181.57,402.51c0.14,0 0.14,0.72 0,1.55s-0.37,1.48 -0.51,1.45s-0.14,-0.71 0,-1.54s0.37,-1.48 0.51,-1.46z"/>
  <path id="svg_253" fill="#455a64" d="m182.59,396.51c0.14,0 0.14,0.71 0,1.54s-0.37,1.48 -0.51,1.46s-0.14,-0.72 0,-1.55s0.37,-1.48 0.51,-1.45z"/>
  <path id="svg_254" fill="#455a64" d="m183.62,390.5c0.14,0 0.14,0.72 0,1.55s-0.37,1.48 -0.52,1.46s-0.14,-0.72 0,-1.55s0.38,-1.48 0.52,-1.46z"/>
  <path id="svg_255" fill="#455a64" d="m184.65,384.5c0.14,0 0.14,0.72 0,1.55s-0.38,1.48 -0.52,1.45s-0.14,-0.71 0,-1.54s0.38,-1.48 0.52,-1.46z"/>
  <path id="svg_256" fill="#455a64" d="m185.69,378.5c0.14,0 0.14,0.72 0,1.55s-0.37,1.48 -0.51,1.45s-0.14,-0.71 0,-1.54s0.36,-1.48 0.51,-1.46z"/>
  <path id="svg_257" fill="#455a64" d="m186.73,372.5c0.14,0 0.14,0.72 0,1.55s-0.37,1.48 -0.51,1.45s-0.14,-0.71 0,-1.54s0.37,-1.48 0.51,-1.46z"/>
  <path id="svg_258" fill="#455a64" d="m187.77,366.5c0.15,0 0.14,0.72 0,1.55s-0.38,1.48 -0.52,1.45s-0.14,-0.71 0,-1.54s0.38,-1.48 0.52,-1.46z"/>
  <path id="svg_259" fill="#455a64" d="m188.83,360.51c0.14,0 0.14,0.71 0,1.54s-0.38,1.48 -0.52,1.45s-0.14,-0.71 0,-1.54s0.38,-1.48 0.52,-1.45z"/>
  <path id="svg_260" fill="#455a64" d="m189.89,354.51c0.14,0 0.14,0.72 0,1.54s-0.38,1.48 -0.52,1.46s-0.14,-0.72 0,-1.55s0.38,-1.48 0.52,-1.45z"/>
  <path id="svg_261" fill="#455a64" d="m191,348.51c0.14,0 0.14,0.72 0,1.55s-0.38,1.48 -0.53,1.45s-0.13,-0.72 0,-1.54s0.35,-1.48 0.53,-1.46z"/>
  <path id="svg_262" fill="#455a64" d="m192,342.52c0.14,0 0.13,0.72 0,1.54s-0.38,1.48 -0.52,1.46s-0.14,-0.72 0,-1.55s0.41,-1.48 0.52,-1.45z"/>
  <path id="svg_263" fill="#455a64" d="m193.12,336.53c0.14,0 0.13,0.71 0,1.54s-0.38,1.48 -0.52,1.45s-0.14,-0.71 0,-1.54s0.4,-1.48 0.52,-1.45z"/>
  <path id="svg_264" fill="#455a64" d="m194.21,330.54c0.15,0 0.14,0.71 0,1.54s-0.39,1.48 -0.53,1.45s-0.14,-0.72 0,-1.54s0.39,-1.48 0.53,-1.45z"/>
  <path id="svg_265" fill="#455a64" d="m195.32,324.55c0.14,0 0.13,0.72 0,1.54s-0.39,1.48 -0.53,1.45s-0.14,-0.72 0,-1.54s0.39,-1.48 0.53,-1.45z"/>
  <path id="svg_266" fill="#455a64" d="m196.43,318.56c0.14,0 0.13,0.72 0,1.54s-0.39,1.48 -0.54,1.45s-0.13,-0.71 0,-1.54s0.4,-1.48 0.54,-1.45z"/>
  <path id="svg_267" fill="#455a64" d="m197.56,312.58c0.14,0 0.13,0.71 0,1.54s-0.4,1.47 -0.54,1.45s-0.13,-0.72 0,-1.55s0.4,-1.47 0.54,-1.44z"/>
  <path id="svg_268" fill="#455a64" d="m198.69,306.59c0.14,0 0.13,0.72 0,1.55s-0.4,1.47 -0.54,1.44s-0.12,-0.71 0,-1.54s0.4,-1.47 0.54,-1.45z"/>
  <path id="svg_269" fill="#455a64" d="m199.84,300.61c0.14,0 0.13,0.72 0,1.55s-0.4,1.47 -0.54,1.44s-0.13,-0.72 0,-1.54s0.4,-1.48 0.54,-1.45z"/>
  <path id="svg_270" fill="#455a64" d="m201,294.63c0.14,0 0.13,0.72 0,1.55s-0.41,1.47 -0.55,1.44s-0.13,-0.72 0,-1.54s0.41,-1.47 0.55,-1.45z"/>
  <path id="svg_271" fill="#455a64" d="m202.18,288.66c0.14,0 0.12,0.72 0,1.54s-0.41,1.47 -0.55,1.45s-0.13,-0.72 0,-1.55s0.37,-1.47 0.55,-1.44z"/>
  <path id="svg_272" fill="#455a64" d="m203.37,282.69c0.14,0 0.12,0.72 -0.05,1.54s-0.41,1.47 -0.55,1.44s-0.12,-0.72 0,-1.54s0.46,-1.47 0.6,-1.44z"/>
  <path id="svg_273" fill="#455a64" d="m204.57,276.72c0.14,0 0.12,0.72 0,1.54s-0.41,1.47 -0.55,1.44s-0.12,-0.72 0,-1.54s0.41,-1.47 0.55,-1.44z"/>
  <path id="svg_274" fill="#455a64" d="m205.79,270.75c0.14,0 0.12,0.72 0,1.54s-0.42,1.47 -0.56,1.44s-0.12,-0.72 0,-1.54s0.42,-1.47 0.56,-1.44z"/>
  <path id="svg_275" fill="#455a64" d="m206.71,266.29c0.14,0 0.19,0.38 0.11,0.79s-0.27,0.71 -0.41,0.68s-0.19,-0.38 -0.1,-0.79s0.26,-0.71 0.4,-0.68z"/>
  <path id="svg_276" fill="#455a64" d="m225.18,444.52c0.15,0 0.25,0.35 0.22,0.76s-0.15,0.74 -0.29,0.74s-0.25,-0.35 -0.23,-0.77s0.12,-0.74 0.3,-0.73z"/>
  <path id="svg_277" fill="#455a64" d="m225.44,438.41c0.14,0 0.23,0.69 0.2,1.54s-0.18,1.52 -0.32,1.52s-0.23,-0.7 -0.2,-1.54s0.17,-1.52 0.32,-1.52z"/>
  <path id="svg_278" fill="#455a64" d="m225.63,432.3c0.14,0 0.24,0.69 0.21,1.53s-0.16,1.53 -0.3,1.52s-0.24,-0.69 -0.22,-1.53s0.16,-1.52 0.31,-1.52z"/>
  <path id="svg_279" fill="#455a64" d="m225.78,426.19c0.14,0 0.24,0.69 0.22,1.53s-0.15,1.53 -0.29,1.52s-0.25,-0.69 -0.23,-1.53s0.16,-1.53 0.3,-1.52z"/>
  <path id="svg_280" fill="#455a64" d="m225.93,420.07c0.14,0 0.24,0.69 0.22,1.54s-0.15,1.52 -0.3,1.52s-0.24,-0.69 -0.22,-1.53s0.15,-1.53 0.3,-1.53z"/>
  <path id="svg_281" fill="#455a64" d="m226.08,414c0.15,0 0.25,0.69 0.22,1.53s-0.15,1.53 -0.3,1.53s-0.24,-0.7 -0.22,-1.54s0.16,-1.52 0.3,-1.52z"/>
  <path id="svg_282" fill="#455a64" d="m226.29,407.84c0.14,0 0.23,0.7 0.2,1.54s-0.17,1.52 -0.31,1.52s-0.24,-0.69 -0.21,-1.54s0.17,-1.52 0.32,-1.52z"/>
  <path id="svg_283" fill="#455a64" d="m226.54,401.73c0.15,0 0.23,0.7 0.2,1.54s-0.18,1.52 -0.32,1.52s-0.24,-0.7 -0.2,-1.54s0.18,-1.52 0.32,-1.52z"/>
  <path id="svg_284" fill="#455a64" d="m226.78,395.62c0.15,0 0.24,0.7 0.2,1.54s-0.17,1.52 -0.31,1.52s-0.24,-0.69 -0.21,-1.54s0.18,-1.52 0.32,-1.52z"/>
  <path id="svg_285" fill="#455a64" d="m227,389.51c0.15,0 0.24,0.7 0.21,1.54s-0.16,1.52 -0.31,1.52s-0.24,-0.69 -0.21,-1.54s0.16,-1.52 0.31,-1.52z"/>
  <path id="svg_286" fill="#455a64" d="m227.18,383.4c0.15,0 0.24,0.69 0.22,1.53s-0.16,1.53 -0.31,1.52s-0.24,-0.69 -0.21,-1.53s0.12,-1.53 0.3,-1.52z"/>
  <path id="svg_287" fill="#455a64" d="m227.34,377.28c0.15,0 0.25,0.7 0.22,1.54s-0.15,1.52 -0.29,1.52s-0.25,-0.69 -0.23,-1.53s0.16,-1.53 0.3,-1.53z"/>
  <path id="svg_288" fill="#455a64" d="m227.47,371.17c0.15,0 0.25,0.69 0.23,1.54s-0.14,1.52 -0.29,1.52s-0.24,-0.69 -0.23,-1.53s0.15,-1.53 0.29,-1.53z"/>
  <path id="svg_289" fill="#455a64" d="m227.58,365.06c0.14,0 0.25,0.69 0.23,1.53s-0.14,1.53 -0.28,1.53s-0.25,-0.69 -0.24,-1.54s0.14,-1.52 0.29,-1.52z"/>
  <path id="svg_290" fill="#455a64" d="m227.65,359c0.14,0 0.25,0.68 0.24,1.53s-0.13,1.52 -0.27,1.52s-0.26,-0.68 -0.25,-1.53s0.14,-1.58 0.28,-1.52z"/>
  <path id="svg_291" fill="#455a64" d="m227.69,352.83c0.15,0 0.26,0.69 0.26,1.53s-0.13,1.53 -0.27,1.53s-0.26,-0.69 -0.26,-1.53s0.13,-1.53 0.27,-1.53z"/>
  <path id="svg_292" fill="#455a64" d="m227.71,346.72c0.14,0 0.26,0.68 0.26,1.53s-0.12,1.52 -0.27,1.52s-0.26,-0.68 -0.25,-1.52s0.11,-1.53 0.26,-1.53z"/>
  <path id="svg_293" fill="#455a64" d="m227.69,340.6c0.14,0 0.26,0.69 0.27,1.53s-0.11,1.53 -0.26,1.53s-0.26,-0.68 -0.26,-1.53s0.11,-1.53 0.25,-1.53z"/>
  <path id="svg_294" fill="#455a64" d="m227.64,334.49c0.15,0 0.27,0.68 0.28,1.53s-0.11,1.53 -0.25,1.53s-0.27,-0.69 -0.28,-1.53s0.11,-1.53 0.25,-1.53z"/>
  <path id="svg_295" fill="#455a64" d="m227.56,328.38c0.15,0 0.27,0.68 0.28,1.52s-0.09,1.53 -0.23,1.53s-0.27,-0.68 -0.29,-1.52s0.1,-1.53 0.24,-1.53z"/>
  <path id="svg_296" fill="#455a64" d="m227.45,322.27c0.15,0 0.28,0.67 0.29,1.52s-0.09,1.53 -0.23,1.53s-0.27,-0.68 -0.29,-1.52s0.09,-1.53 0.23,-1.53z"/>
  <path id="svg_297" fill="#455a64" d="m227.31,316.15c0.15,0 0.28,0.68 0.3,1.52s-0.08,1.53 -0.22,1.54s-0.28,-0.68 -0.3,-1.53s0.08,-1.53 0.22,-1.53z"/>
  <path id="svg_298" fill="#455a64" d="m227.1,310c0.14,0 0.29,0.68 0.32,1.52s-0.06,1.53 -0.2,1.54s-0.29,-0.68 -0.32,-1.52s0.1,-1.54 0.2,-1.54z"/>
  <path id="svg_299" fill="#455a64" d="m226.74,303.93c0.15,0 0.31,0.66 0.36,1.5s0,1.54 -0.16,1.55s-0.3,-0.67 -0.36,-1.51s0.02,-1.53 0.16,-1.54z"/>
  <path id="svg_300" fill="#455a64" d="m226.18,297.84c0.14,0 0.33,0.65 0.42,1.49s0,1.53 -0.11,1.55s-0.33,-0.66 -0.41,-1.5s-0.08,-1.53 0.1,-1.54z"/>
  <path id="svg_301" fill="#455a64" d="m225.59,293.33c0.15,0 0.31,0.3 0.37,0.71s0,0.76 -0.15,0.78s-0.31,-0.3 -0.37,-0.71s0.01,-0.76 0.15,-0.78z"/>
  <polygon id="svg_302" fill="#455a64" points="248.68 446.29 219.58 446.77 219.81 441.92 248.68 442.07 248.68 446.29"/>
  <path id="svg_303" fill="#455a64" d="m229.59,264.45a4.34,4.34 0 0 1 0,1.13c0,0.84 -0.07,1.87 -0.11,3.08c-0.12,2.6 -0.31,6.18 -0.55,10.14c-0.13,2 -0.26,3.85 -0.37,5.58a16.12,16.12 0 0 1 -0.67,4.56a3.82,3.82 0 0 1 -2.12,2.26a2.33,2.33 0 0 1 -0.85,0.17c-0.19,0 -0.29,0 -0.29,-0.05a5,5 0 0 0 1.06,-0.3a3.82,3.82 0 0 0 1.86,-2.21a17.19,17.19 0 0 0 0.53,-4.46c0.1,-1.73 0.21,-3.61 0.33,-5.58c0.24,-4 0.49,-7.54 0.7,-10.13c0.11,-1.21 0.2,-2.24 0.27,-3.07a5.66,5.66 0 0 1 0.21,-1.12z"/>
  <path id="svg_304" fill="#455a64" d="m226.77,266.88c0,-0.07 0.46,0 0.62,0.62a1.15,1.15 0 0 1 -0.22,1a1.18,1.18 0 0 1 -2,-0.82a1.14,1.14 0 0 1 0.55,-0.88c0.54,-0.32 0.93,-0.06 0.88,0s-0.34,0 -0.66,0.31a0.82,0.82 0 0 0 -0.29,0.6a0.74,0.74 0 0 0 1.18,0.48a0.86,0.86 0 0 0 0.21,-0.64c-0.04,-0.42 -0.31,-0.55 -0.27,-0.67z"/>
  <path id="svg_305" fill="#455a64" d="m200.88,271.23c0,-0.09 0.88,0.3 2.34,0.5a10,10 0 0 0 9.88,-4.41c0.83,-1.23 1.11,-2.12 1.19,-2.09a5.23,5.23 0 0 1 -0.88,2.28a9.67,9.67 0 0 1 -10.25,4.58a5.29,5.29 0 0 1 -2.28,-0.86z"/>
  <path id="svg_306" fill="#455a64" d="m246.64,264.45c0.08,0 0.1,0.75 0.45,1.89a8.19,8.19 0 0 0 6.56,5.75c1.18,0.2 1.93,0.11 1.94,0.2a3.89,3.89 0 0 1 -2,0.16a7.8,7.8 0 0 1 -6.87,-6a3.76,3.76 0 0 1 -0.08,-2z"/>
  <path id="svg_307" fill="#455a64" d="m262.08,268.64l-59.24,-4l0.69,-29.19l0,-21.12l-6.6,9.73l-17.6,-18.39l19.67,-18.87l0,0a30.88,30.88 0 0 1 12,-7.75a24.87,24.87 0 0 1 7.5,-1.43l0,0a30.09,30.09 0 0 0 18.11,0l3,0.34a35.73,35.73 0 0 1 20.85,10l18.9,27.44l-21.3,11.07l-2.47,-8.47s6.63,44.79 6.49,50.64z"/>
  <path id="svg_308" fill="#263238" d="m203,215.43a15,15 0 0 1 1.91,-3.48a14.53,14.53 0 0 1 2.35,-3.19a15.29,15.29 0 0 1 -1.91,3.47a15.91,15.91 0 0 1 -2.35,3.2z"/>
  <polygon id="svg_309" fill="#23346B" points="262.12 313.96 143.81 291.47 152.22 248.51 270.54 271 280.3 294.7 262.12 313.96"/>
  <g id="svg_310" opacity="0.3">
   <polygon id="svg_311" points="262.12 313.96 143.81 291.47 152.22 248.51 270.54 271 280.3 294.7 262.12 313.96"/>
  </g>
  <polygon id="svg_312" fill="#23346B" points="260.52 310.13 144.72 287.45 153.13 244.49 268.94 267.18 278.7 290.88 260.52 310.13"/>
  <path id="svg_319" fill="#2b1a0b" d="m172.27,272.28l1.15,2.81a26.35,26.35 0 0 0 1.85,4.76a7.41,7.41 0 0 0 1.47,2a11.09,11.09 0 0 0 2.45,2a1,1 0 0 1 -0.06,1.85c-0.87,0.17 -3.32,-0.91 -5.33,-3.3s-1.93,2.53 -1.93,4.33s-0.27,7.34 -0.82,7.78c-0.81,0.64 -1.64,-0.11 -1.6,-1.9s-0.21,-7.18 -1.16,-7.13s-0.81,9.18 -0.81,9.18s0.34,1.94 -0.75,2c-2,0.16 -1.39,-9.55 -1.31,-10.48c0.06,-0.64 -1,-0.63 -1,0.06s0.34,9.11 -1.67,9.29c-1.54,0.14 0.41,-8 -0.63,-9.69s-0.85,6.32 -2.33,6.39c-0.54,0 -1,0 -0.4,-4.65s4.19,-17.31 4.19,-17.31l8.81,2.09"/>
  <path id="svg_320" fill="#2b1a0b" d="m194.16,221.57s-12.42,10.27 -13.22,13.78s-6.79,42.48 -6.79,42.48l-12.15,-1.83s0.61,-48.45 4.86,-53.15s14.78,-15.73 14.78,-15.73l12.52,14.45z"/>
  <path id="svg_321" fill="#2b1a0b" d="m167.79,228s-0.17,-0.1 -0.35,-0.4a2.48,2.48 0 0 1 0.81,-3.3a2.55,2.55 0 0 1 2.65,-0.13a2,2 0 0 1 0.93,1.11a1.77,1.77 0 0 1 -0.1,1.36a1.46,1.46 0 0 1 -2,0.57a1.2,1.2 0 0 1 -0.42,-1.4c0.14,-0.34 0.35,-0.42 0.36,-0.4a2.41,2.41 0 0 0 -0.2,0.45a1,1 0 0 0 0.43,1.1a1.13,1.13 0 0 0 1.53,-0.5a1.4,1.4 0 0 0 0.05,-1a1.58,1.58 0 0 0 -0.75,-0.87a2.15,2.15 0 0 0 -2.22,0.1a2.2,2.2 0 0 0 -1,1.57a3.3,3.3 0 0 0 0.28,1.74z"/>
  <path id="svg_322" fill="#2b1a0b" d="m294.56,260.72s11.36,-4 12.14,-3.36a32.88,32.88 0 0 1 2.9,5.2a1.63,1.63 0 0 1 -1.47,2.35l0,0a1.63,1.63 0 0 1 -1.43,-0.84l-1.86,-3.39l-10.28,0.04z"/>
  <path id="svg_323" fill="#2b1a0b" d="m299,260.72s11.36,-4 12.13,-3.36a32.07,32.07 0 0 1 2.9,5.2a1.63,1.63 0 0 1 -1.47,2.35l0,0a1.64,1.64 0 0 1 -1.43,-0.84l-1.86,-3.39l-10.27,0.04z"/>
  <path id="svg_324" fill="#2b1a0b" d="m303.46,260.72s11.37,-4 12.14,-3.36a32.07,32.07 0 0 1 2.9,5.2a1.63,1.63 0 0 1 -1.47,2.35l0,0a1.64,1.64 0 0 1 -1.43,-0.84l-1.86,-3.39l-10.28,0.04z"/>
  <path id="svg_325" fill="#2b1a0b" d="m309.39,262.13a5.69,5.69 0 0 1 -1,-1.91a9.18,9.18 0 0 0 -1.06,-2a1.86,1.86 0 0 0 -0.92,-0.7a3,3 0 0 0 -1.29,0.29a52.34,52.34 0 0 0 -6.74,2.7a6.52,6.52 0 0 1 1.77,-1.22a24.65,24.65 0 0 1 4.78,-2a3.21,3.21 0 0 1 1.56,-0.31a2.2,2.2 0 0 1 1.22,0.91a8,8 0 0 1 1,2.14a20.61,20.61 0 0 1 0.68,2.1z"/>
  <path id="svg_326" fill="#2b1a0b" d="m313.61,261.88c-0.08,0 -0.25,-0.46 -0.61,-1.2a20.77,20.77 0 0 0 -1.61,-2.76a1.4,1.4 0 0 0 -1.36,-0.53a7.08,7.08 0 0 0 -1.36,0.36c-0.82,0.29 -1.39,0.2 -1.38,0.13s0.5,-0.11 1.25,-0.47a5.39,5.39 0 0 1 1.43,-0.49a2,2 0 0 1 1,0.05a1.91,1.91 0 0 1 0.86,0.62c1.5,2.16 1.94,4.26 1.78,4.29z"/>
  <path id="svg_327" fill="#2b1a0b" d="m318.05,261.88a5.63,5.63 0 0 1 -0.61,-1.2a20.77,20.77 0 0 0 -1.61,-2.76a1.4,1.4 0 0 0 -1.36,-0.53a7.08,7.08 0 0 0 -1.36,0.36c-0.82,0.29 -1.39,0.2 -1.38,0.13s0.5,-0.11 1.25,-0.47a5.52,5.52 0 0 1 1.43,-0.49a2,2 0 0 1 1,0.05a1.86,1.86 0 0 1 0.86,0.62c1.5,2.16 1.94,4.26 1.78,4.29z"/>
  <g id="freepik--speech-bubble--inject-20">
   <path id="svg_328" fill="#23346B" d="m464.83,146.74a5.3,5.3 0 0 0 3.16,-4.91a5,5 0 1 0 -10,-0.05a5.31,5.31 0 0 0 3.17,5c-7.66,1.16 -7.32,9.49 -7.32,9.49l18.13,0.08s0.46,-8.46 -7.14,-9.61z"/>
   <path id="svg_329" fill="#455a64" d="m456.32,144.67s0.42,0 1.11,-0.22a4.65,4.65 0 0 0 2.46,-1.65a4.4,4.4 0 1 0 -7.05,-0.14a4.61,4.61 0 0 0 2.39,1.75c0.68,0.21 1.1,0.21 1.09,0.26s-0.1,0 -0.29,0a3.51,3.51 0 0 1 -0.86,-0.1a4.61,4.61 0 0 1 -2.63,-1.72a4.77,4.77 0 0 1 -0.66,-4.57a4.84,4.84 0 0 1 9.13,0.18a4.78,4.78 0 0 1 -0.84,4.54a4.61,4.61 0 0 1 -2.69,1.62a3.57,3.57 0 0 1 -0.86,0.06c-0.2,0.02 -0.3,0.01 -0.3,-0.01z"/>
   <path id="svg_330" fill="#455a64" d="m449.78,148.83a10.06,10.06 0 0 1 1.7,-2.71a9.88,9.88 0 0 1 2.12,-2.41a10.33,10.33 0 0 1 -1.7,2.72a10.19,10.19 0 0 1 -2.12,2.4z"/>
   <path id="svg_331" fill="#263238" d="m481.89,156.24s0.14,0.18 0.39,0.54l1.1,1.57c1,1.41 2.34,3.44 4.12,6a0.12,0.12 0 0 1 0,0.17a0.11,0.11 0 0 1 -0.07,0l-11.55,0a0.15,0.15 0 0 1 -0.15,-0.14a0.19,0.19 0 0 1 0,-0.08l0,0l0.27,0.22a24.91,24.91 0 0 1 -11,5.78a23.78,23.78 0 0 1 -7.11,0.57a23.48,23.48 0 0 1 -7.46,-1.62a25.29,25.29 0 0 1 -7,-4.1a24.57,24.57 0 0 1 -5.47,-6.48a24.82,24.82 0 0 1 42.39,-25.84a24.64,24.64 0 0 1 3.51,9.49c0.05,0.37 0.11,0.73 0.16,1.09s0,0.72 0.06,1.06c0,0.7 0.09,1.37 0.07,2a25.35,25.35 0 0 1 -0.32,3.49a23.48,23.48 0 0 1 -1.28,4.67c-0.2,0.51 -0.37,0.9 -0.49,1.15a3.2,3.2 0 0 1 -0.19,0.39a3,3 0 0 1 0.14,-0.4c0.11,-0.27 0.26,-0.66 0.44,-1.18a25,25 0 0 0 1.18,-4.66a25.47,25.47 0 0 0 0.27,-3.46c0,-0.64 -0.06,-1.3 -0.09,-2c0,-0.34 0,-0.69 -0.07,-1.05l-0.17,-1.08a24.44,24.44 0 0 0 -39.8,-15a24.35,24.35 0 0 0 -5.38,31a24.14,24.14 0 0 0 5.36,6.36a25.1,25.1 0 0 0 6.83,4a23.12,23.12 0 0 0 7.32,1.61a23.68,23.68 0 0 0 7,-0.53a24.48,24.48 0 0 0 10.87,-5.63a0.18,0.18 0 0 1 0.25,0a0.17,0.17 0 0 1 0,0.2l0,0l-0.27,-0.23a1.8,1.8 0 0 1 0.53,-0.07l2.84,0l3,0l5.24,0.06l-0.1,0.19l-4.05,-6.14l-1,-1.6c-0.21,-0.14 -0.32,-0.32 -0.32,-0.32z"/>
  </g>
  <text stroke="null" transform="rotate(11.644878387451172 222.71130371093722,279.12530517578125) matrix(0.920539975166321,0,0,1,14.022020504079011,-0.5543783217116598) " xml:space="preserve" text-anchor="start" font-family="Helvetica, Arial, sans-serif" font-size="24" id="svg_332" y="287.99847" x="175.99907" stroke-opacity="null" stroke-width="0" fill="#ffffff">Volunteer</text>
 </g>
</svg>